<?xml version="1.0" standalone="no"?>
<!DOCTYPE svg PUBLIC "-//W3C//DTD SVG 20010904//EN"
 "http://www.w3.org/TR/2001/REC-SVG-20010904/DTD/svg10.dtd">
<svg version="1.0" xmlns="http://www.w3.org/2000/svg"
 width="1710.000000pt" height="1710.000000pt" viewBox="0 0 1710.000000 1710.000000"
 preserveAspectRatio="xMidYMid meet">
<metadata>
Created by potrace 1.11, written by Peter Selinger 2001-2013
</metadata>
<g transform="translate(0.000000,1710.000000) scale(0.100000,-0.100000)"
fill="#000000" stroke="none">
<path d="M130 16445 c-20 -21 -22 -31 -17 -76 7 -59 53 -162 115 -257 73 -114
108 -263 97 -417 -9 -130 -36 -256 -104 -497 -224 -794 -274 -1416 -155 -1947
118 -528 438 -911 854 -1023 70 -19 110 -23 225 -22 124 0 149 4 221 27 92 30
179 84 242 148 46 47 55 68 50 119 -3 31 -7 34 -78 59 -589 207 -597 1310 -15
2056 247 317 543 452 1090 496 149 12 910 7 1016 -7 l47 -6 6 -422 c37 -2350
34 -10344 -4 -12216 -7 -315 -14 -496 -25 -562 -54 -359 -162 -608 -339 -783
-141 -139 -275 -198 -520 -225 -145 -16 -198 -67 -212 -204 l-7 -66 2358 0
2358 0 -5 73 c-6 82 -32 144 -74 172 -16 10 -61 21 -108 26 -232 26 -392 91
-528 218 -194 179 -305 433 -370 846 -10 63 -13 1438 -15 6611 l-3 6531 57 7
c124 14 896 19 1053 7 469 -37 765 -146 977 -363 302 -309 443 -763 503 -1623
32 -448 56 -4900 40 -7510 -13 -2277 -27 -3485 -41 -3612 -74 -676 -374 -1055
-883 -1112 -151 -17 -196 -62 -196 -192 l0 -79 2350 0 2350 0 0 88 c0 139 -32
173 -176 186 -156 13 -347 88 -477 187 -171 130 -311 363 -376 629 -55 225
-54 209 -58 928 l-4 673 39 -25 c58 -36 249 -131 349 -172 876 -364 2009 -346
2948 48 283 118 582 289 818 466 419 315 758 704 1020 1171 315 562 483 1160
559 1981 16 174 24 6074 9 6380 -18 354 -63 614 -157 905 -279 861 -937 1574
-1822 1975 -293 132 -571 216 -902 273 l-125 21 -6680 6 -6680 6 -125 21
c-144 24 -269 55 -341 83 -67 27 -100 25 -129 -5z m12175 -1189 c404 -54 711
-143 996 -286 574 -288 911 -756 994 -1378 9 -64 18 -216 20 -337 3 -121 10
-1667 16 -3435 9 -2455 9 -3254 0 -3380 -49 -690 -229 -1183 -540 -1483 -134
-129 -250 -201 -406 -250 -527 -166 -1126 148 -1277 670 -21 70 -23 99 -22
278 0 167 4 217 23 304 78 363 254 548 604 631 44 11 82 21 84 24 3 2 7 23 10
46 6 41 5 43 -64 109 -127 122 -282 181 -526 202 -305 25 -523 -22 -767 -167
-51 -30 -94 -54 -96 -54 -2 0 -4 1912 -4 4249 l0 4249 118 12 c64 6 124 13
132 15 41 10 605 -5 705 -19z"/>
</g>
</svg>
