<?xml version="1.0" standalone="no"?>
<!DOCTYPE svg PUBLIC "-//W3C//DTD SVG 1.1//EN" "http://www.w3.org/Graphics/SVG/1.1/DTD/svg11.dtd" >
<svg xmlns="http://www.w3.org/2000/svg" xmlns:xlink="http://www.w3.org/1999/xlink" version="1.1">
<metadata></metadata>
<defs>
<font id="labor_unionregular" horiz-adv-x="600" >
<font-face units-per-em="1000" ascent="800" descent="-200" />
<missing-glyph horiz-adv-x="300" />
<glyph horiz-adv-x="0" />
<glyph horiz-adv-x="333" />
<glyph unicode=" "  horiz-adv-x="300" />
<glyph unicode="&#x09;" horiz-adv-x="300" />
<glyph unicode="&#xa0;" horiz-adv-x="300" />
<glyph unicode="!" horiz-adv-x="219" d="M89 193q-25 0 -25 31l-9 443q0 18 7 25.5t25 7.5h47q19 0 25.5 -7t5.5 -27l-9 -442q0 -31 -30 -31h-37zM110 0q-24 0 -42 18t-18 43q0 24 17.5 42.5t42.5 18.5q27 0 43 -16.5t16 -44.5q0 -27 -17 -44t-42 -17z" />
<glyph unicode="&#x22;" horiz-adv-x="374" d="M247 524q-24 0 -24 27v152q0 30 29 30h39q33 0 33 -29v-153q0 -11 -8 -19t-21 -8h-48zM74 523q-24 0 -24 27v152q0 30 29 30h39q33 0 33 -29v-153q0 -11 -8 -19t-21 -8h-48z" />
<glyph unicode="#" horiz-adv-x="502" d="M132 144q-18 0 -18 20v21q0 20 -20 20h-26q-18 0 -18 19v47q0 18 20 18h24q20 0 20 19v70q0 20 -19 20h-27q-18 0 -18 19v46q0 18 20 18h26q18 0 18 21v22q0 22 21 22h45q18 0 18 -20v-23q0 -22 19 -22h70q19 0 19 20v23q0 22 21 22h45q18 0 18 -20v-23q0 -22 18 -22h22 q22 0 22 -21v-44q0 -18 -20 -18h-20q-22 0 -22 -20v-66q0 -23 20 -23h20q22 0 22 -21v-45q0 -18 -20 -18h-21q-21 0 -21 -20v-23q0 -18 -19 -18h-47q-18 0 -18 20v21q0 20 -20 20h-66q-22 0 -22 -18v-25q0 -18 -19 -18h-47zM220 289h66q20 0 20 20v70q0 19 -22 19h-67 q-19 0 -19 -20v-69q0 -20 22 -20z" />
<glyph unicode="$" horiz-adv-x="628" d="M310 -65q-26 0 -26 33q0 13 -5.5 18.5t-29.5 10.5q-73 15 -133 64q-18 13 -36.5 9t-22.5 -1q-15 10 9 43q2 3 3 4l45 62q28 39 42 29q5 -4 6 -24t11 -30l5 -7q6 -6 11.5 -11t15 -12.5t22.5 -14t28 -11.5q29 -9 29 23v164q0 10 -1 15t-7.5 11t-20.5 9q-85 18 -132 59.5 t-50 135.5q-2 79 47.5 130.5t135.5 65.5q18 3 23 10t5 26q0 23 22 23h45q20 0 20 -24q0 -18 5.5 -25.5t26.5 -12.5q43 -10 100 -42q17 -9 35 -4.5t25 -0.5q14 -9 -5 -41l-44 -70q-19 -32 -33 -20q-4 3 -11 24t-30 36q-6 4 -38 16q-23 7 -27 3t-4 -23v-158q0 -10 1 -14 t6 -8.5t16 -6.5q32 -7 55.5 -14.5t49 -22.5t42 -35t27 -52t10.5 -73q0 -88 -50.5 -140.5t-129.5 -66.5q-17 -3 -22 -8.5t-5 -19.5q0 -31 -26 -31h-35zM256 429q14 -5 21 0t7 23v134q0 18 -5 21.5t-28 -0.5q-29 -7 -47.5 -32.5t-18.5 -60.5q0 -63 71 -85zM402 101 q26 10 43 37t17 63q0 65 -65 85q-17 4 -21.5 0.5t-4.5 -14.5v-153q0 -17 5 -21t26 3z" />
<glyph unicode="%" horiz-adv-x="814" d="M211 361q-70 0 -115.5 47.5t-45.5 123.5q0 68 45 118t116 50q70 0 118.5 -48.5t48.5 -117.5q0 -77 -46.5 -125t-120.5 -48zM165 18l-26 21q-28 21 -6 46l479 586q25 29 47 12l28 -22q23 -18 2 -45l-477 -590q-9 -11 -21.5 -14t-25.5 6zM213 437q39 0 62 25.5t23 69.5 q0 38 -24 62t-62 24q-39 0 -62 -25t-23 -61q0 -42 25 -68.5t61 -26.5zM603 0q-74 0 -120.5 48t-46.5 125q0 69 48.5 117.5t118.5 48.5q71 0 116 -50t45 -118q0 -76 -45.5 -123.5t-115.5 -47.5zM602 76q36 0 61 26.5t25 68.5q0 35 -25.5 62t-60.5 27q-38 0 -65 -26.5 t-27 -62.5q0 -42 26 -68.5t66 -26.5z" />
<glyph unicode="&#x26;" horiz-adv-x="570" d="M284 -13q-115 0 -184.5 72t-69.5 158q0 35 9 65t19.5 47.5t26 32.5t22 19t13.5 8q18 10 0 22q-52 35 -52 119q0 68 58 123.5t149 55.5q97 0 145 -48q8 -10 23.5 -5t20.5 1q13 -9 1 -27l-62 -88q-14 -19 -31 -2q-6 6 -2 19.5t-8 25.5q-19 19 -36.5 26.5t-50.5 7.5 q-44 0 -69.5 -27t-25.5 -67q0 -26 25 -50.5t56 -24.5q20 0 26.5 -3.5t6.5 -20.5v-54q0 -24 -35 -24q-48 0 -82.5 -37.5t-34.5 -93.5q0 -48 39.5 -89t94.5 -41q66 0 100 40q21 23 -3 49l-87 101q-14 17 0 31l34 34q17 17 35 -5q2 -2 4 -4.5t3 -4t2.5 -3.5t2.5 -2.5t2.5 -1 t3 0t3.5 1.5q1 1 2 25.5t13 35.5q8 7 13 7.5t16 -8.5l50 -50q14 -14 -2 -32q-16 -17 -12.5 -47t24.5 -54l91 -98q18 -18 0 -35l-36 -32q-20 -18 -38 2l-18 20q-17 20 -34 3q-33 -33 -69.5 -53t-91.5 -20z" />
<glyph unicode="'" horiz-adv-x="201" d="M74 523q-24 0 -24 27v152q0 30 29 30h39q33 0 33 -29v-153q0 -11 -8 -19t-21 -8h-48z" />
<glyph unicode="(" />
<glyph unicode=")" />
<glyph unicode="*" />
<glyph unicode="+" horiz-adv-x="437" d="M183 188q-19 0 -19 22v73q0 23 -25 23h-71q-18 0 -18 19v64q0 18 20 18h76q18 0 18 21v76q0 21 19 21h67q13 0 18.5 -5t5.5 -18v-72q0 -23 21 -23h70q22 0 22 -21v-62q0 -18 -20 -18h-70q-23 0 -23 -21v-75q0 -22 -19 -22h-72z" />
<glyph unicode="," horiz-adv-x="219" d="M128 -45q-19 -12 -30 2q-6 8 -4.5 15t6 12t4 9t-10.5 7q-16 4 -29.5 21t-13.5 40q0 24 17.5 42.5t42.5 18.5q27 0 45 -18t18 -56q0 -64 -45 -93z" />
<glyph unicode="-" horiz-adv-x="502" d="M68 306q-18 0 -18 19v64q0 18 20 18h360q22 0 22 -21v-62q0 -18 -20 -18h-364z" />
<glyph unicode="." horiz-adv-x="219" d="M110 0q-24 0 -42 18t-18 43q0 24 17.5 42.5t42.5 18.5q27 0 43 -16.5t16 -44.5q0 -27 -17 -44t-42 -17z" />
<glyph unicode="/" horiz-adv-x="355" d="M29 0q-13 0 -17.5 10t0.5 20l220 648q8 22 35 22h61q23 0 15 -24l-219 -650q-9 -26 -33 -26h-62z" />
<glyph unicode="0" horiz-adv-x="651" d="M327 -13q-151 0 -224 103t-73 264q0 157 79.5 258t217.5 101q142 0 218 -99.5t76 -259.5q0 -77 -16.5 -141.5t-50.5 -116t-92 -80.5t-135 -29zM327 93q94 0 138 69.5t44 191.5q0 51 -9.5 95.5t-30 82.5t-57 60t-85.5 22q-61 0 -103.5 -39t-60.5 -95.5t-18 -125.5 q0 -261 182 -261z" />
<glyph unicode="1" horiz-adv-x="277" d="M97 0q-25 0 -34.5 3t-9.5 15q0 6 8.5 11.5t17.5 16.5t9 31l1 417q0 30 -4.5 37.5t-12 3.5t-16.5 5q-11 11 1 28l86 119q17 22 35 19.5t18 -23.5l1 -606q0 -25 15 -40t15 -23q0 -14 -25 -14h-105z" />
<glyph unicode="2" horiz-adv-x="597" d="M99 0q-23 0 -23 25v50q0 33 8 60.5t31 64.5t74 79t129 89q37 22 55 35.5t35.5 40.5t17.5 59q0 52 -34 84t-86 32q-68 0 -111 -43q-23 -23 -23.5 -40t-1.5 -18q-10 -16 -32 -4l-72 41q-24 14 -14 28q4 6 22.5 13t34.5 28q67 89 198 89q102 0 168 -58.5t66 -151.5 q0 -71 -46.5 -132.5t-175.5 -135.5q-69 -40 -109 -96q-27 -41 -4 -42h267q24 0 38.5 12t19.5 12q16 0 16 -22v-78q0 -21 -23 -21h-425z" />
<glyph unicode="3" horiz-adv-x="576" d="M276 -11q-52 0 -102 21t-69.5 36t-33.5 29q-6 7 -19 8t-19 8q-9 11 4 22l64 61q18 18 28 5q3 -4 3.5 -19.5t16.5 -31.5q46 -44 129 -44q68 0 109 36t41 91q0 33 -9 56t-23 33.5t-25.5 14.5t-23.5 4h-83q-22 0 -22 24v52q0 24 24 24h81q25 0 48 26.5t23 65.5 q0 47 -37.5 77t-93.5 30q-95 0 -147 -52q-15 -15 -12.5 -31t-4.5 -23q-9 -10 -26 4l-68 57q-15 13 -6 23q5 6 17.5 7.5t25.5 12.5l10.5 10.5t18 16.5t23 18t31 19t37.5 16t47 12t55 4q61 0 110 -20.5t76 -51.5t40.5 -62t13.5 -58q0 -87 -64 -133q-5 -4 -5 -9t6 -8 q8 -4 19 -14t26 -28.5t25.5 -49t10.5 -65.5q0 -98 -76 -161t-194 -63z" />
<glyph unicode="4" horiz-adv-x="604" d="M415 0q-18 0 -25.5 3t-7.5 15q0 5 5.5 9.5t11.5 8t11.5 16.5t5.5 34v57q0 22 -19 22l-286 2q-43 0 -51 9q-4 5 -4 12q0 8 14 20t14 36l-1 370q0 28 -16.5 45.5t-16.5 22.5q0 12 7 15t25 3h105q30 0 30 -14q0 -7 -15 -24.5t-15 -47.5l-1 -327q0 -20 18 -20h193q19 0 19 23 l1 330q0 23 -7.5 35t-15 17.5t-7.5 12.5q0 15 31 15h105q35 0 35 -15q0 -6 -9 -11.5t-18 -18t-9 -35.5l1 -332q0 -20 16 -20h34q12 0 16.5 -4.5t4.5 -17.5v-61q0 -20 -19 -20h-35q-17 0 -17 -21v-58q0 -26 8 -39t16 -18.5t8 -14.5q0 -14 -32 -14h-108z" />
<glyph unicode="5" horiz-adv-x="634" d="M327 -9q-47 0 -90.5 15.5t-71.5 37.5t-43 37t-20 23q-14 20 -28.5 21.5t-16.5 5.5q-8 14 19 35l70 56q6 6 16 7t16 -6q4 -6 -1 -21.5t9 -40.5q47 -70 141 -70q60 0 103 43t43 108q0 59 -41.5 102.5t-101.5 43.5q-82 0 -132 -52q-17 -18 -27.5 -20.5t-22.5 8.5l-57 51 q-18 16 -18 44l2 207q0 27 -12.5 39t-12.5 22q0 13 30 13h454q17 0 22 -6t5 -25v-62q0 -30 -19 -30q-9 0 -20 13.5t-34 13.5h-289q-22 0 -22 -20v-117q0 -27 25 -10q49 33 128 33q109 0 181.5 -70.5t72.5 -177.5q0 -45 -15.5 -88t-45 -80.5t-80.5 -60t-116 -22.5z" />
<glyph unicode="6" horiz-adv-x="591" d="M294 -14q-74 0 -144 41.5t-100 119.5q-43 111 1.5 257.5t155.5 231.5q15 11 15 17.5t-7.5 12.5t-7.5 12q0 22 22 22h115q41 0 41 -28q0 -20 -47 -46q-33 -18 -70 -54.5t-51 -74.5q-4 -11 2 -15.5t19 1.5q26 11 59 11q118 0 191 -69.5t73 -184.5q0 -102 -72 -178t-195 -76 zM294 90q63 -1 110 41t47 109q0 68 -42.5 112t-111.5 45q-74 1 -115 -43t-41 -110q0 -70 42.5 -111.5t110.5 -42.5z" />
<glyph unicode="7" horiz-adv-x="565" d="M204 0q-21 0 -21 14q0 7 8 13t18 16.5t13 29.5q13 88 22 134q1 7 -3.5 10.5t-13.5 3.5h-88q-33 0 -24 29l12 41q7 23 37 23h81q19 0 25 19q2 6 19 61.5t32 103t26 74.5q12 32 -12 32h-238q-21 0 -29.5 -10t-18.5 -10q-19 0 -19 45v46q0 25 26 25h430q43 0 23 -39 q-27 -52 -70 -167.5t-51 -160.5q-3 -19 10 -19h60q31 0 22 -32l-9 -35q-7 -26 -33 -26h-58q-16 0 -21 -15q-14 -46 -24 -138q-3 -24 9.5 -33.5t11.5 -20.5q-1 -14 -27 -14h-125z" />
<glyph unicode="8" horiz-adv-x="584" d="M294 -13q-108 0 -186 64.5t-78 166.5q0 18 3.5 35t9 31t12.5 27t15.5 23.5t16.5 19t15.5 15t13 11t9.5 6.5l4 3q7 8 6.5 11t-8.5 11q-54 54 -54 117q0 73 60 128t163 55q104 0 159.5 -52t55.5 -132q0 -63 -56 -119q-6 -8 -5 -10t8 -7q96 -70 96 -180q0 -101 -76 -162.5 t-184 -61.5zM296 430q47 0 77.5 25t30.5 67q0 48 -29.5 74.5t-75.5 26.5q-49 0 -82.5 -26.5t-33.5 -66.5q0 -47 31.5 -73.5t81.5 -26.5zM294 79q66 0 106.5 38.5t40.5 93.5q0 58 -38 95t-111 37q-68 0 -109.5 -38t-41.5 -87q0 -60 43 -99.5t110 -39.5z" />
<glyph unicode="9" horiz-adv-x="587" d="M216 0q-27 0 -27 18q0 9 8 14t21 14t22 24l60 102q13 24 -8 24q-115 0 -188.5 79.5t-73.5 184.5q0 46 15.5 89.5t45.5 81t82.5 60.5t119.5 23q125 0 194.5 -72t69.5 -182q0 -40 -12.5 -76.5t-30.5 -65.5t-64 -101.5t-86 -144.5q-12 -20 -12 -28t6 -13.5t6 -14.5 q0 -16 -26 -16h-122zM293 300q69 0 107.5 45t38.5 115q0 72 -41.5 114t-104.5 42q-64 0 -107.5 -42.5t-43.5 -113.5q0 -67 41 -113.5t110 -46.5z" />
<glyph unicode=":" horiz-adv-x="319" d="M160 439q-24 0 -42 18t-18 43q0 24 17.5 42.5t42.5 18.5q27 0 43 -16.5t16 -44.5q0 -27 -17 -44t-42 -17zM160 0q-24 0 -42 18t-18 43q0 24 17.5 42.5t42.5 18.5q27 0 43 -16.5t16 -44.5q0 -27 -17 -44t-42 -17z" />
<glyph unicode=";" horiz-adv-x="323" d="M162 439q-24 0 -42 18t-18 43q0 24 17.5 42.5t42.5 18.5q27 0 43 -16.5t16 -44.5q0 -27 -17 -44t-42 -17zM178 -45q-19 -12 -30 2q-6 8 -4.5 15t6 12t4 9t-10.5 7q-16 4 -29.5 21t-13.5 40q0 24 17.5 42.5t42.5 18.5q27 0 45 -18t18 -56q0 -64 -45 -93z" />
<glyph unicode="&#x3c;" />
<glyph unicode="=" d="M118 375q-18 0 -18 19v64q0 18 20 18h358q22 0 22 -21v-62q0 -18 -20 -18h-362zM118 200q-18 0 -18 19v64q0 18 20 18h358q22 0 22 -21v-62q0 -18 -20 -18h-362z" />
<glyph unicode="&#x3e;" />
<glyph unicode="?" horiz-adv-x="547" d="M246 193q-23 0 -25 31l-8 101q-1 8 0.5 13.5t6 9.5t9 6.5t13.5 4.5t16 3t19 3t21 3q49 8 81 46t32 89t-36 82.5t-89 31.5q-65 0 -109 -44q-23 -23 -23.5 -40t-1.5 -18q-11 -17 -32 -4l-74 44q-24 14 -14 28q4 6 22.5 13t34.5 28q67 89 198 89q99 0 164.5 -59t65.5 -151 q0 -64 -29 -119t-80 -81q-19 -10 -41.5 -18t-31 -12t-14.5 -14t-6 -30q0 -19 -6 -27.5t-24 -8.5h-39zM268 0q-24 0 -42 18t-18 43q0 24 17.5 42.5t42.5 18.5q27 0 43 -16.5t16 -44.5q0 -27 -17 -44t-42 -17z" />
<glyph unicode="@" />
<glyph unicode="A" horiz-adv-x="660" d="M28 0q-28 0 -28 19q0 10 9 16t21.5 15.5t18.5 28.5l190 548q7 21 -3.5 35t-10.5 19q0 19 24 19h147q25 0 25 -19q0 -8 -13.5 -21t-5.5 -33l214 -553q8 -21 26 -32.5t18 -22.5q0 -12 -8 -15.5t-30 -3.5h-120q-19 0 -26 3t-7 14q0 13 14.5 23t8.5 28l-18 50q-6 16 -26 16 h-242q-21 0 -27 -14l-9 -35q-8 -33 3.5 -44.5t11.5 -23.5q0 -11 -10 -14t-34 -3h-113zM230 233h188q18 0 10 22l-99 276q-3 8 -8.5 8t-7.5 -7l-97 -281q-6 -18 14 -18z" />
<glyph unicode="B" horiz-adv-x="690" d="M103 0q-49 0 -49 19q0 8 6 13.5t12.5 9t12.5 15.5t6 32v532q0 17 -6.5 27.5t-14 13.5t-14 7.5t-6.5 11.5q0 12 9.5 15.5t31.5 3.5h300q91 0 147.5 -49t56.5 -133q0 -79 -52 -122q-13 -11 2 -17q33 -15 64 -56.5t31 -113.5q0 -90 -51.5 -149.5t-148.5 -59.5h-337zM227 408 h169q35 0 61.5 28t26.5 71t-26.5 67t-66.5 24h-160q-24 0 -24 -21l-2 -146q0 -23 22 -23zM224 98h192q49 0 80 30t31 81q0 55 -35.5 77.5t-88.5 22.5h-181q-18 0 -18 -16l-1 -171q0 -13 4 -18.5t17 -5.5z" />
<glyph unicode="C" horiz-adv-x="705" d="M385 -15q-153 0 -254 108.5t-101 260.5q0 153 99 256t264 103q130 0 207 -58q13 -10 32 -5t25 0q13 -10 -8 -43l-42 -65q-15 -24 -32 -15q-5 3 -9.5 17t-15.5 24q-49 43 -157 43q-107 0 -176 -73t-69 -184q0 -108 69 -186.5t168 -78.5q115 0 165 50q16 17 15 31t4 19 q15 15 28 -2l72 -84q12 -13 0 -25q-3 -3 -18 -4t-34 -15q-55 -39 -94 -53q-59 -21 -138 -21z" />
<glyph unicode="D" horiz-adv-x="728" d="M94 0q-44 0 -44 20q0 8 6 13.5t13.5 9t13.5 14t6 28.5v527q0 21 -6 33.5t-12.5 16.5t-12.5 9.5t-6 13.5q0 15 39 15h6h277q151 0 242.5 -96.5t91.5 -248.5t-91.5 -253.5t-241.5 -101.5h-281zM224 103h118q117 0 181 63t64 191q0 242 -245 240l-118 -1q-24 0 -24 -21v-445 q0 -17 4.5 -22t19.5 -5z" />
<glyph unicode="E" horiz-adv-x="651" d="M89 0q-39 0 -39 12q0 11 11 17t22 16t11 31l-1 538q0 22 -6.5 34t-13.5 14.5t-13.5 8t-6.5 16.5q0 4 2 6.5t6 3.5l8 2t10.5 1h11.5h13h13h479q25 0 25 -22v-75q0 -35 -19 -35q-6 0 -10.5 5t-8 11.5t-15 11.5t-30.5 5h-312q-19 0 -19 -20v-149q0 -16 4.5 -22t18.5 -6h204 q19 0 30.5 13.5t16.5 13.5q9 0 13 -5.5t5 -12.5t1 -20v-81q0 -36 -21 -36q-4 0 -16 15t-29 15h-198q-14 0 -21.5 -6t-6.5 -18v-159q0 -16 6.5 -20t23.5 -4h308q17 0 26.5 5.5t11.5 12t6.5 12t12.5 5.5q12 0 15 -8.5t3 -26.5v-78q0 -21 -17 -21h-515z" />
<glyph unicode="F" horiz-adv-x="606" d="M105 0q-17 0 -26 1t-16 6t-7 15q0 6 17 18.5t17 31.5l2 513q0 31 -6.5 49.5t-14.5 23t-14.5 10t-6.5 13.5q0 13 11 16t44 3h6h464q31 0 31 -18v-73q0 -47 -19 -47q-9 0 -13.5 5.5t-6.5 12t-11.5 12t-27.5 5.5h-286q-20 0 -25.5 -4t-5.5 -17l-1 -166q0 -21 24 -21h175 q12 0 23 11.5t20 11.5q16 0 16 -22v-90q0 -28 -16 -28q-5 0 -18 10.5t-25 10.5h-180q-19 0 -19 -19v-202q0 -19 15 -30t15 -19q0 -16 -11 -19.5t-42 -3.5h-82z" />
<glyph unicode="G" horiz-adv-x="759" d="M388 -14q-166 0 -262 106t-96 257q0 157 97.5 261.5t260.5 104.5q32 0 61.5 -3.5t53 -10t43.5 -13.5t36 -15.5t26 -14.5t19 -12t10 -7q21 -12 38.5 -10t23.5 -3q12 -8 -6 -36l-44 -66q-19 -30 -33 -19q-3 2 -8.5 20t-31.5 36q-27 18 -45.5 27.5t-55.5 17.5t-87 8 q-99 0 -170.5 -72.5t-71.5 -192.5q0 -121 71.5 -193.5t171.5 -72.5q64 0 115 26.5t66 56.5q5 10 5 24v70q0 20 -4 30.5t-9.5 13t-9.5 5.5t-4 10q0 12 7 15t24 3h101q29 0 29 -17q0 -7 -4 -10.5t-8.5 -5t-8.5 -11t-4 -26.5v-113q0 -14 -3 -22q-4 -11 -14.5 -26.5t-34.5 -37.5 t-55.5 -39.5t-81 -30t-107.5 -12.5z" />
<glyph unicode="H" horiz-adv-x="805" d="M88 0q-22 0 -30 3t-8 12q0 8 10 15.5t20.5 19.5t10.5 31l1 547q0 16 -5.5 24.5t-12 10.5t-12 7t-5.5 15q0 9 9 12t35 3h122q32 0 32 -15q0 -9 -20 -21.5t-20 -35.5v-181q0 -20 8.5 -26.5t25.5 -7.5l314 1q10 0 16 1.5t11 8t5 19.5v186q0 15 -6 24t-13 12t-13 8t-6 12 q0 15 54 15h100q40 0 40 -15q0 -9 -18.5 -21.5t-18.5 -31.5v-559q0 -14 6.5 -23t14 -12.5t14 -8.5t6.5 -11q0 -12 -12 -15t-41 -3h-117q-31 0 -31 12q0 7 6.5 13t14.5 10.5t14.5 15t6.5 24.5l-4 197q0 29 -24 29h-325q-29 0 -29 -16v-204q0 -18 7 -29t15.5 -14.5t15.5 -9 t7 -13.5q0 -15 -47 -15h-124z" />
<glyph unicode="I" horiz-adv-x="284" d="M85 0q-19 0 -27 3t-8 15q0 5 18 22.5t18 45.5v534q0 30 -14.5 45t-14.5 20q0 15 31 15h110q35 0 35 -15q0 -6 -9 -11.5t-18 -18t-9 -35.5v-534q0 -23 9.5 -36t18.5 -20.5t9 -15.5q0 -14 -36 -14h-113z" />
<glyph unicode="J" horiz-adv-x="519" d="M211 -11q-97 0 -160 63q-11 12 -27 13t-21 8q-2 3 -2.5 5.5t1 5.5t3 5t4.5 4.5t5 4t6 4t5 3.5l65 43q22 15 32 4q5 -6 2 -19.5t3 -17.5q26 -23 84 -23q51 0 81.5 41.5t30.5 120.5v379q0 13 -6 21t-13.5 11t-13.5 7t-6 10q0 18 43 18h98q26 0 35 -3.5t9 -14.5 q0 -7 -9.5 -11t-19 -12.5t-9.5 -24.5v-411q0 -101 -58.5 -167.5t-161.5 -66.5z" />
<glyph unicode="K" horiz-adv-x="731" d="M84 0q-28 0 -28 16q0 8 14.5 16.5t14.5 29.5l-1 565q0 18 -5.5 28.5t-11.5 13t-11.5 7t-5.5 12.5q0 12 32 12h110q33 0 33 -13q0 -8 -7.5 -13t-15.5 -15.5t-8 -31.5v-435q0 -11 7 -12t11 7l335 462q7 11 -3.5 18.5t-10.5 17.5q0 15 35 15h106q36 0 36 -16q0 -7 -4 -11.5 t-10 -7.5t-17.5 -13t-22.5 -25l-155 -229q-13 -17 -13.5 -28t9.5 -23l170 -275q15 -21 29 -31.5t19.5 -14.5t5.5 -14q0 -12 -44 -12h-121q-25 0 -25 13q0 8 8.5 13t9.5 10.5t-14 32.5l-113 180q-11 16 -17 18t-17 -10l-141 -188q-13 -22 -11 -27.5t11.5 -12t9.5 -15.5 t-9 -11.5t-36 -2.5h-128z" />
<glyph unicode="L" horiz-adv-x="563" d="M86 0q-13 0 -20 1t-11.5 4.5t-4.5 10.5q0 8 6 13.5t13 9t13 13t6 25.5v544q0 20 -5.5 32t-12.5 14.5t-12.5 6t-5.5 9.5q0 17 34 17h112q37 0 37 -17q0 -6 -8.5 -11t-16.5 -15.5t-8 -30.5v-502q0 -15 5 -19.5t15 -4.5h269q20 0 38.5 10t28.5 4q5 -5 4.5 -15.5t-4.5 -17.5 l-42 -67q-9 -14 -25 -14h-405z" />
<glyph unicode="M" horiz-adv-x="872" d="M85 0q-32 0 -32 15q0 11 9.5 17t19 18.5t9.5 40.5v532q0 18 -6.5 28t-14 12.5t-14 7.5t-6.5 14q0 15 28 15h139q32 0 32 -17q0 -11 -19.5 -21t-19.5 -32v-10q0 -15 10 -31l210 -254q13 -16 26 0l201 248q9 12 9 30v20q0 20 -16 30t-16 21q0 10 10 13t36 3h111 q31 0 31 -17q0 -8 -6.5 -13.5t-14 -9t-14 -14t-6.5 -27.5l-1 -518q0 -31 10 -46.5t19.5 -23t9.5 -17.5t-7.5 -12t-31.5 -2h-106q-25 0 -34 3.5t-9 13.5q0 9 6 14.5t12.5 9.5t12.5 17.5t6 34.5l-1 302q0 6 -3 7.5t-7.5 -0.5t-8.5 -7l-189 -225q-16 -20 -31 -1l-204 226 q-8 8 -12 5t-4 -11l-2 -302q0 -19 6 -31.5t13 -17t13 -10.5t6 -15t-10 -11t-38 -2h-111z" />
<glyph unicode="N" horiz-adv-x="798" d="M87 0q-37 0 -37 14q0 9 6 14.5t13.5 9.5t13.5 16.5t5 33.5v526q0 21 -5.5 33.5t-12 16.5t-12 9t-5.5 12q0 10 9.5 12.5t35.5 2.5h71q29 0 29 -26v-70v-5.5t1 -5t1.5 -4t2 -3.5t2 -3.5t2.5 -3.5l3 -3l4 -4l4 -4l357 -307q10 -10 17.5 -6.5t7.5 20.5v323q0 27 -5.5 43 t-12.5 19.5t-12.5 9t-5.5 13.5q0 12 11.5 14.5t47.5 2.5h68q31 0 44 -3.5t13 -15.5q0 -8 -5.5 -13t-12.5 -8.5t-12.5 -17.5t-5.5 -38v-528q0 -21 16 -34.5t16 -24.5q0 -17 -31 -17h-94q-19 0 -19 24v53q0 18 -21 39l-350 297q-13 11 -21.5 7.5t-8.5 -20.5v-314 q0 -21 6.5 -33.5t14.5 -15.5t14.5 -8.5t6.5 -14.5q0 -10 -6 -12t-23 -2h-8h-117z" />
<glyph unicode="O" horiz-adv-x="778" d="M30 346q0 89 31 161t83 116.5t116.5 68t133.5 23.5q68 -1 130.5 -24.5t113 -68t80.5 -116t30 -160.5t-31.5 -160t-83.5 -115t-116.5 -66.5t-134.5 -21.5q-92 2 -170 41t-130 123t-52 199zM150 346q0 -120 70 -187.5t166 -69.5q99 -2 172 66t73 191t-70.5 192t-167.5 70 q-98 1 -170.5 -68t-72.5 -194z" />
<glyph unicode="P" horiz-adv-x="684" d="M100 0q-47 0 -47 16q0 10 10.5 16.5t21.5 22t11 48.5v500q0 20 -4.5 33t-11.5 18t-14 8.5t-11.5 8t-4.5 11.5q0 13 9 15.5t36 2.5h9h333q104 0 170.5 -54.5t66.5 -173.5q0 -113 -63 -177.5t-188 -64.5h-179q-22 1 -26 -2.5t-4 -17.5v-102q0 -27 6.5 -44t14 -23t14 -12.5 t6.5 -13.5q0 -11 -8 -13t-29 -2h-118zM231 344h186q141 0 141 127q0 60 -40 89.5t-107 29.5h-165q-23 0 -27.5 -6t-4.5 -39v-172v-5v-5.5v-4.5t0.5 -4t1.5 -3.5t2 -3l3 -1.5t4.5 -1.5t5.5 -0.5z" />
<glyph unicode="Q" horiz-adv-x="767" d="M380 -9q-153 0 -251.5 106.5t-98.5 257.5q0 155 100.5 257t249.5 102q153 0 251.5 -104t98.5 -264q0 -69 -22.5 -125.5t-40.5 -77.5q-9 -11 0 -21l78 -89q9 -10 4.5 -21.5t-14.5 -11.5h-109h-17t-10.5 1.5t-7.5 4t-2 6.5q0 8 4.5 12.5t6.5 5.5t-4 9q-8 8 -14 8.5 t-22 -8.5q-83 -48 -180 -48zM372 100q35 0 62.5 6t40.5 14t22 17.5t8 16.5t-2 10l-65 87q-7 9 -8 18t4 14t14 5h100q23 0 31 -3t8 -13q0 -8 -8 -16t-2 -17q12 -18 25 24q12 41 12 90q0 105 -65 181t-169 76q-102 0 -168.5 -78t-66.5 -178q0 -108 64 -181t163 -73z" />
<glyph unicode="R" horiz-adv-x="714" d="M76 0q-25 0 -25 15q0 9 18.5 25t18.5 39v529q0 22 -6 36t-13 17.5t-13 9t-6 13.5q0 16 56 16h303q106 0 178 -58.5t72 -169.5q0 -55 -29.5 -104t-63.5 -71q-17 -11 -10 -29l84 -201q6 -14 25 -25.5t19 -25.5q0 -16 -33 -16h-97q-30 0 -39.5 3t-9.5 12q0 10 15.5 24 t5.5 38l-72 169q-5 13 -13 16.5t-28 3.5h-187h-5t-5.5 -1t-6 -3t-4.5 -5.5t-4 -10.5t-1 -16v-153q0 -25 18 -38t18 -23q0 -16 -34 -16h-126zM235 366h188q50 0 84.5 29.5t34.5 76.5q0 122 -133 122h-178q-31 0 -31 -30l1 -174q0 -24 34 -24z" />
<glyph unicode="S" horiz-adv-x="653" d="M344 -12q-27 0 -52 2t-45.5 6t-38 8.5t-32.5 10.5t-26 11t-21 11.5t-15 10t-11 8.5t-7 5q-17 12 -34.5 8.5t-22.5 0.5q-15 11 10 46l45 62q26 36 42 23q5 -3 4.5 -19t12.5 -29l2 -2q52 -55 189 -55q163 0 163 105q0 38 -33 60.5t-83 29.5t-108.5 19.5t-109 29.5 t-84.5 61.5t-36 112.5q-2 97 73.5 149.5t217.5 52.5q121 0 204 -51q22 -11 37.5 -5.5t22.5 0.5q14 -11 -5 -41l-51 -79l-2 -2q-13 -21 -22 -21q-4 1 -9 3q-6 3 -6.5 12.5t-7 22.5t-27.5 25q-54 31 -134 31q-179 0 -179 -97q0 -33 25.5 -53t65.5 -29t89 -16t98 -19.5 t89 -32.5t65.5 -61.5t25.5 -101.5q0 -108 -77 -160.5t-202 -52.5z" />
<glyph unicode="T" horiz-adv-x="605" d="M239 0q-25 0 -25 16q0 7 17.5 21t17.5 34l2 504q0 15 -5.5 21.5t-22.5 6.5l-129 1q-20 0 -32 -4t-15.5 -9.5t-8 -9.5t-10.5 -4q-18 0 -18 37v63q0 23 26 23h535q24 0 24 -21v-56q0 -50 -19 -50q-8 0 -18 15t-32 15h-128q-26 0 -26 -27l-1 -506q0 -13 5.5 -21.5t11.5 -12 t11.5 -8t5.5 -10.5q0 -18 -24 -18h-142z" />
<glyph unicode="U" horiz-adv-x="751" d="M381 -14q-143 0 -220 84t-78 235l-2 320q0 16 -5 25.5t-10.5 12.5t-10.5 8t-5 12q0 17 31 17h116q19 0 26.5 -3.5t7.5 -14.5q0 -6 -5.5 -10.5t-12 -7t-12 -13t-5.5 -28.5v-318q0 -94 45.5 -156.5t139.5 -62.5q91 0 135.5 62.5t44.5 153.5v318q0 19 -5 30.5t-10.5 14.5 t-10.5 7t-5 10q0 12 7.5 15t24.5 3h108q11 0 17 -1t10 -5.5t4 -13.5q0 -6 -7.5 -10.5t-14.5 -16t-7 -33.5v-315q0 -152 -73 -235.5t-218 -83.5z" />
<glyph unicode="V" horiz-adv-x="686" d="M386 -2q-4 -9 -16.5 -9t-17.5 10l-328 631q-8 16 -19.5 25t-18 14t-6.5 13q0 18 21 18h129q15 0 20.5 -0.5t10 -5t4.5 -13.5t-8.5 -14t-11.5 -9.5t6 -26.5l206 -392q13 -22 24 -4l150 288q26 50 18 103q-2 15 -8.5 24.5t-13.5 12t-12.5 7.5t-5.5 14q0 16 24 16h125 q28 0 28 -14q0 -11 -10 -19.5t-7 -32.5q4 -28 -5.5 -73.5t-34.5 -89.5z" />
<glyph unicode="W" horiz-adv-x="912" d="M305 0l-255 611q-9 22 -19 35.5t-16.5 17t-10.5 8t-4 12.5q0 10 6.5 13t23.5 3h103q21 0 28.5 -4t7.5 -16q0 -6 -7.5 -12.5t-10.5 -13.5t5 -29l146 -340q6 -14 13.5 -14t12.5 14l63 164q11 29 5 44l-49 128q-7 18 -15 29t-13.5 14t-9 7.5t-3.5 13.5q0 15 25 15h117 q22 0 29 -2.5t7 -14.5q0 -8 -9 -15t-13.5 -14t2.5 -29l142 -339q5 -11 12 -11.5t13 11.5l121 331q8 27 3.5 33.5t-13.5 15t-9 19.5q0 15 36 15h102q41 0 41 -17q0 -11 -16 -25.5t-27 -43.5l-232 -612q-4 -11 -13 -11.5t-14 11.5l-140 321q-11 25 -20 0l-121 -323 q-3 -8 -11.5 -8.5t-12.5 8.5z" />
<glyph unicode="X" horiz-adv-x="721" d="M56 0q-16 0 -21 3t-5 13q0 12 16 23t23 20l204 280q9 13 0 25l-186 256q-13 17 -25 28t-18 14t-10 8t-4 14q0 16 29 16h122q40 0 40 -17q0 -8 -7.5 -14.5t-7.5 -16t15 -29.5l130 -168q7 -10 10.5 -10t10.5 10l129 176q13 22 11 26.5t-11 11.5t-9 16q0 10 9.5 12.5 t41.5 2.5h115q33 0 33 -14q0 -10 -5 -15.5t-17.5 -15.5t-23.5 -24l-201 -267q-11 -14 0 -30l197 -270q8 -10 29 -24t21 -26q0 -14 -27 -14h-122q-48 0 -48 16q0 7 5 15t4 18.5t-14 29.5l-117 171q-8 10 -10.5 9.5t-9.5 -9.5l-131 -171q-14 -23 -13 -29t8.5 -15.5t7.5 -19.5 q0 -7 -4 -10.5t-9 -4t-16 -0.5h-139z" />
<glyph unicode="Y" horiz-adv-x="638" d="M251 0q-30 0 -30 15q0 6 16 18.5t16 32.5v157q0 23 -5 32l-222 379q-8 14 -17 21.5t-15 9t-10 6.5t-4 14q0 15 39 15h126q27 0 27 -15q0 -10 -9.5 -15.5t-13 -9t6.5 -24.5l152 -257q8 -14 17 0l155 258q8 17 5 21.5t-11 11.5t-8 15q0 15 26 15h134q32 0 32 -15 q0 -10 -5 -15t-12 -7t-19 -12t-22 -28l-216 -367q-9 -15 -9 -32v-158q0 -16 8 -24t16 -13.5t8 -13.5q0 -7 -4.5 -10.5t-9.5 -4t-17 -0.5h-125z" />
<glyph unicode="Z" horiz-adv-x="595" d="M81 0q-21 0 -31 18l-19 32q-12 21 4 41l369 485q5 9 0.5 15t-14.5 6h-287q-24 0 -36 -16t-20 -16q-6 0 -9 1.5t-5.5 8.5t-2.5 21v78q0 11 10.5 18.5t24.5 7.5h448q31 0 39 -20l12 -30q9 -22 -7 -45l-357 -490q-3 -5 -1 -8.5t7 -3.5h269q25 0 41 15t21 15q15 0 15 -33v-67 q0 -14 -10.5 -23.5t-24.5 -9.5h-436z" />
<glyph unicode="[" />
<glyph unicode="\" horiz-adv-x="355" d="M326 0h-62q-24 0 -33 26l-219 650q-8 24 15 24h61q27 0 35 -22l220 -648q5 -10 0.5 -20t-17.5 -10z" />
<glyph unicode="]" />
<glyph unicode="^" />
<glyph unicode="_" />
<glyph unicode="`" horiz-adv-x="187" d="M98 762q-30 0 -38 8t-29 58q-22 52 -16 61.5t56 9.5q28 0 35.5 -6.5t27.5 -51.5q26 -59 21.5 -69t-57.5 -10z" />
<glyph unicode="a" horiz-adv-x="660" d="M28 0q-28 0 -28 19q0 10 9 16t21.5 15.5t18.5 28.5l190 548q7 21 -3.5 35t-10.5 19q0 19 24 19h147q25 0 25 -19q0 -8 -13.5 -21t-5.5 -33l214 -553q8 -21 26 -32.5t18 -22.5q0 -12 -8 -15.5t-30 -3.5h-120q-19 0 -26 3t-7 14q0 13 14.5 23t8.5 28l-18 50q-6 16 -26 16 h-242q-21 0 -27 -14l-9 -35q-8 -33 3.5 -44.5t11.5 -23.5q0 -11 -10 -14t-34 -3h-113zM230 233h188q18 0 10 22l-99 276q-3 8 -8.5 8t-7.5 -7l-97 -281q-6 -18 14 -18z" />
<glyph unicode="b" horiz-adv-x="690" d="M103 0q-49 0 -49 19q0 8 6 13.5t12.5 9t12.5 15.5t6 32v532q0 17 -6.5 27.5t-14 13.5t-14 7.5t-6.5 11.5q0 12 9.5 15.5t31.5 3.5h300q91 0 147.5 -49t56.5 -133q0 -79 -52 -122q-13 -11 2 -17q33 -15 64 -56.5t31 -113.5q0 -90 -51.5 -149.5t-148.5 -59.5h-337zM227 408 h169q35 0 61.5 28t26.5 71t-26.5 67t-66.5 24h-160q-24 0 -24 -21l-2 -146q0 -23 22 -23zM224 98h192q49 0 80 30t31 81q0 55 -35.5 77.5t-88.5 22.5h-181q-18 0 -18 -16l-1 -171q0 -13 4 -18.5t17 -5.5z" />
<glyph unicode="c" horiz-adv-x="705" d="M385 -15q-153 0 -254 108.5t-101 260.5q0 153 99 256t264 103q130 0 207 -58q13 -10 32 -5t25 0q13 -10 -8 -43l-42 -65q-15 -24 -32 -15q-5 3 -9.5 17t-15.5 24q-49 43 -157 43q-107 0 -176 -73t-69 -184q0 -108 69 -186.5t168 -78.5q115 0 165 50q16 17 15 31t4 19 q15 15 28 -2l72 -84q12 -13 0 -25q-3 -3 -18 -4t-34 -15q-55 -39 -94 -53q-59 -21 -138 -21z" />
<glyph unicode="d" horiz-adv-x="728" d="M94 0q-44 0 -44 20q0 8 6 13.5t13.5 9t13.5 14t6 28.5v527q0 21 -6 33.5t-12.5 16.5t-12.5 9.5t-6 13.5q0 15 39 15h6h277q151 0 242.5 -96.5t91.5 -248.5t-91.5 -253.5t-241.5 -101.5h-281zM224 103h118q117 0 181 63t64 191q0 242 -245 240l-118 -1q-24 0 -24 -21v-445 q0 -17 4.5 -22t19.5 -5z" />
<glyph unicode="e" horiz-adv-x="651" d="M89 0q-39 0 -39 12q0 11 11 17t22 16t11 31l-1 538q0 22 -6.5 34t-13.5 14.5t-13.5 8t-6.5 16.5q0 4 2 6.5t6 3.5l8 2t10.5 1h11.5h13h13h479q25 0 25 -22v-75q0 -35 -19 -35q-6 0 -10.5 5t-8 11.5t-15 11.5t-30.5 5h-312q-19 0 -19 -20v-149q0 -16 4.5 -22t18.5 -6h204 q19 0 30.5 13.5t16.5 13.5q9 0 13 -5.5t5 -12.5t1 -20v-81q0 -36 -21 -36q-4 0 -16 15t-29 15h-198q-14 0 -21.5 -6t-6.5 -18v-159q0 -16 6.5 -20t23.5 -4h308q17 0 26.5 5.5t11.5 12t6.5 12t12.5 5.5q12 0 15 -8.5t3 -26.5v-78q0 -21 -17 -21h-515z" />
<glyph unicode="f" horiz-adv-x="606" d="M105 0q-17 0 -26 1t-16 6t-7 15q0 6 17 18.5t17 31.5l2 513q0 31 -6.5 49.5t-14.5 23t-14.5 10t-6.5 13.5q0 13 11 16t44 3h6h464q31 0 31 -18v-73q0 -47 -19 -47q-9 0 -13.5 5.5t-6.5 12t-11.5 12t-27.5 5.5h-286q-20 0 -25.5 -4t-5.5 -17l-1 -166q0 -21 24 -21h175 q12 0 23 11.5t20 11.5q16 0 16 -22v-90q0 -28 -16 -28q-5 0 -18 10.5t-25 10.5h-180q-19 0 -19 -19v-202q0 -19 15 -30t15 -19q0 -16 -11 -19.5t-42 -3.5h-82z" />
<glyph unicode="g" horiz-adv-x="759" d="M388 -14q-166 0 -262 106t-96 257q0 157 97.5 261.5t260.5 104.5q32 0 61.5 -3.5t53 -10t43.5 -13.5t36 -15.5t26 -14.5t19 -12t10 -7q21 -12 38.5 -10t23.5 -3q12 -8 -6 -36l-44 -66q-19 -30 -33 -19q-3 2 -8.5 20t-31.5 36q-27 18 -45.5 27.5t-55.5 17.5t-87 8 q-99 0 -170.5 -72.5t-71.5 -192.5q0 -121 71.5 -193.5t171.5 -72.5q64 0 115 26.5t66 56.5q5 10 5 24v70q0 20 -4 30.5t-9.5 13t-9.5 5.5t-4 10q0 12 7 15t24 3h101q29 0 29 -17q0 -7 -4 -10.5t-8.5 -5t-8.5 -11t-4 -26.5v-113q0 -14 -3 -22q-4 -11 -14.5 -26.5t-34.5 -37.5 t-55.5 -39.5t-81 -30t-107.5 -12.5z" />
<glyph unicode="h" horiz-adv-x="805" d="M88 0q-22 0 -30 3t-8 12q0 8 10 15.5t20.5 19.5t10.5 31l1 547q0 16 -5.5 24.5t-12 10.5t-12 7t-5.5 15q0 9 9 12t35 3h122q32 0 32 -15q0 -9 -20 -21.5t-20 -35.5v-181q0 -20 8.5 -26.5t25.5 -7.5l314 1q10 0 16 1.5t11 8t5 19.5v186q0 15 -6 24t-13 12t-13 8t-6 12 q0 15 54 15h100q40 0 40 -15q0 -9 -18.5 -21.5t-18.5 -31.5v-559q0 -14 6.5 -23t14 -12.5t14 -8.5t6.5 -11q0 -12 -12 -15t-41 -3h-117q-31 0 -31 12q0 7 6.5 13t14.5 10.5t14.5 15t6.5 24.5l-4 197q0 29 -24 29h-325q-29 0 -29 -16v-204q0 -18 7 -29t15.5 -14.5t15.5 -9 t7 -13.5q0 -15 -47 -15h-124z" />
<glyph unicode="i" horiz-adv-x="284" d="M85 0q-19 0 -27 3t-8 15q0 5 18 22.5t18 45.5v534q0 30 -14.5 45t-14.5 20q0 15 31 15h110q35 0 35 -15q0 -6 -9 -11.5t-18 -18t-9 -35.5v-534q0 -23 9.5 -36t18.5 -20.5t9 -15.5q0 -14 -36 -14h-113z" />
<glyph unicode="j" horiz-adv-x="519" d="M211 -11q-97 0 -160 63q-11 12 -27 13t-21 8q-2 3 -2.5 5.5t1 5.5t3 5t4.5 4.5t5 4t6 4t5 3.5l65 43q22 15 32 4q5 -6 2 -19.5t3 -17.5q26 -23 84 -23q51 0 81.5 41.5t30.5 120.5v379q0 13 -6 21t-13.5 11t-13.5 7t-6 10q0 18 43 18h98q26 0 35 -3.5t9 -14.5 q0 -7 -9.5 -11t-19 -12.5t-9.5 -24.5v-411q0 -101 -58.5 -167.5t-161.5 -66.5z" />
<glyph unicode="k" horiz-adv-x="731" d="M84 0q-28 0 -28 16q0 8 14.5 16.5t14.5 29.5l-1 565q0 18 -5.5 28.5t-11.5 13t-11.5 7t-5.5 12.5q0 12 32 12h110q33 0 33 -13q0 -8 -7.5 -13t-15.5 -15.5t-8 -31.5v-435q0 -11 7 -12t11 7l335 462q7 11 -3.5 18.5t-10.5 17.5q0 15 35 15h106q36 0 36 -16q0 -7 -4 -11.5 t-10 -7.5t-17.5 -13t-22.5 -25l-155 -229q-13 -17 -13.5 -28t9.5 -23l170 -275q15 -21 29 -31.5t19.5 -14.5t5.5 -14q0 -12 -44 -12h-121q-25 0 -25 13q0 8 8.5 13t9.5 10.5t-14 32.5l-113 180q-11 16 -17 18t-17 -10l-141 -188q-13 -22 -11 -27.5t11.5 -12t9.5 -15.5 t-9 -11.5t-36 -2.5h-128z" />
<glyph unicode="l" horiz-adv-x="563" d="M86 0q-13 0 -20 1t-11.5 4.5t-4.5 10.5q0 8 6 13.5t13 9t13 13t6 25.5v544q0 20 -5.5 32t-12.5 14.5t-12.5 6t-5.5 9.5q0 17 34 17h112q37 0 37 -17q0 -6 -8.5 -11t-16.5 -15.5t-8 -30.5v-502q0 -15 5 -19.5t15 -4.5h269q20 0 38.5 10t28.5 4q5 -5 4.5 -15.5t-4.5 -17.5 l-42 -67q-9 -14 -25 -14h-405z" />
<glyph unicode="m" horiz-adv-x="872" d="M85 0q-32 0 -32 15q0 11 9.5 17t19 18.5t9.5 40.5v532q0 18 -6.5 28t-14 12.5t-14 7.5t-6.5 14q0 15 28 15h139q32 0 32 -17q0 -11 -19.5 -21t-19.5 -32v-10q0 -15 10 -31l210 -254q13 -16 26 0l201 248q9 12 9 30v20q0 20 -16 30t-16 21q0 10 10 13t36 3h111 q31 0 31 -17q0 -8 -6.5 -13.5t-14 -9t-14 -14t-6.5 -27.5l-1 -518q0 -31 10 -46.5t19.5 -23t9.5 -17.5t-7.5 -12t-31.5 -2h-106q-25 0 -34 3.5t-9 13.5q0 9 6 14.5t12.5 9.5t12.5 17.5t6 34.5l-1 302q0 6 -3 7.5t-7.5 -0.5t-8.5 -7l-189 -225q-16 -20 -31 -1l-204 226 q-8 8 -12 5t-4 -11l-2 -302q0 -19 6 -31.5t13 -17t13 -10.5t6 -15t-10 -11t-38 -2h-111z" />
<glyph unicode="n" horiz-adv-x="798" d="M87 0q-37 0 -37 14q0 9 6 14.5t13.5 9.5t13.5 16.5t5 33.5v526q0 21 -5.5 33.5t-12 16.5t-12 9t-5.5 12q0 10 9.5 12.5t35.5 2.5h71q29 0 29 -26v-70v-5.5t1 -5t1.5 -4t2 -3.5t2 -3.5t2.5 -3.5l3 -3l4 -4l4 -4l357 -307q10 -10 17.5 -6.5t7.5 20.5v323q0 27 -5.5 43 t-12.5 19.5t-12.5 9t-5.5 13.5q0 12 11.5 14.5t47.5 2.5h68q31 0 44 -3.5t13 -15.5q0 -8 -5.5 -13t-12.5 -8.5t-12.5 -17.5t-5.5 -38v-528q0 -21 16 -34.5t16 -24.5q0 -17 -31 -17h-94q-19 0 -19 24v53q0 18 -21 39l-350 297q-13 11 -21.5 7.5t-8.5 -20.5v-314 q0 -21 6.5 -33.5t14.5 -15.5t14.5 -8.5t6.5 -14.5q0 -10 -6 -12t-23 -2h-8h-117z" />
<glyph unicode="o" horiz-adv-x="778" d="M30 346q0 89 31 161t83 116.5t116.5 68t133.5 23.5q68 -1 130.5 -24.5t113 -68t80.5 -116t30 -160.5t-31.5 -160t-83.5 -115t-116.5 -66.5t-134.5 -21.5q-92 2 -170 41t-130 123t-52 199zM150 346q0 -120 70 -187.5t166 -69.5q99 -2 172 66t73 191t-70.5 192t-167.5 70 q-98 1 -170.5 -68t-72.5 -194z" />
<glyph unicode="p" horiz-adv-x="684" d="M100 0q-47 0 -47 16q0 10 10.5 16.5t21.5 22t11 48.5v500q0 20 -4.5 33t-11.5 18t-14 8.5t-11.5 8t-4.5 11.5q0 13 9 15.5t36 2.5h9h333q104 0 170.5 -54.5t66.5 -173.5q0 -113 -63 -177.5t-188 -64.5h-179q-22 1 -26 -2.5t-4 -17.5v-102q0 -27 6.5 -44t14 -23t14 -12.5 t6.5 -13.5q0 -11 -8 -13t-29 -2h-118zM231 344h186q141 0 141 127q0 60 -40 89.5t-107 29.5h-165q-23 0 -27.5 -6t-4.5 -39v-172v-5v-5.5v-4.5t0.5 -4t1.5 -3.5t2 -3l3 -1.5t4.5 -1.5t5.5 -0.5z" />
<glyph unicode="q" horiz-adv-x="767" d="M380 -9q-153 0 -251.5 106.5t-98.5 257.5q0 155 100.5 257t249.5 102q153 0 251.5 -104t98.5 -264q0 -69 -22.5 -125.5t-40.5 -77.5q-9 -11 0 -21l78 -89q9 -10 4.5 -21.5t-14.5 -11.5h-109h-17t-10.5 1.5t-7.5 4t-2 6.5q0 8 4.5 12.5t6.5 5.5t-4 9q-8 8 -14 8.5 t-22 -8.5q-83 -48 -180 -48zM372 100q35 0 62.5 6t40.5 14t22 17.5t8 16.5t-2 10l-65 87q-7 9 -8 18t4 14t14 5h100q23 0 31 -3t8 -13q0 -8 -8 -16t-2 -17q12 -18 25 24q12 41 12 90q0 105 -65 181t-169 76q-102 0 -168.5 -78t-66.5 -178q0 -108 64 -181t163 -73z" />
<glyph unicode="r" horiz-adv-x="714" d="M76 0q-25 0 -25 15q0 9 18.5 25t18.5 39v529q0 22 -6 36t-13 17.5t-13 9t-6 13.5q0 16 56 16h303q106 0 178 -58.5t72 -169.5q0 -55 -29.5 -104t-63.5 -71q-17 -11 -10 -29l84 -201q6 -14 25 -25.5t19 -25.5q0 -16 -33 -16h-97q-30 0 -39.5 3t-9.5 12q0 10 15.5 24 t5.5 38l-72 169q-5 13 -13 16.5t-28 3.5h-187h-5t-5.5 -1t-6 -3t-4.5 -5.5t-4 -10.5t-1 -16v-153q0 -25 18 -38t18 -23q0 -16 -34 -16h-126zM235 366h188q50 0 84.5 29.5t34.5 76.5q0 122 -133 122h-178q-31 0 -31 -30l1 -174q0 -24 34 -24z" />
<glyph unicode="s" horiz-adv-x="653" d="M344 -12q-27 0 -52 2t-45.5 6t-38 8.5t-32.5 10.5t-26 11t-21 11.5t-15 10t-11 8.5t-7 5q-17 12 -34.5 8.5t-22.5 0.5q-15 11 10 46l45 62q26 36 42 23q5 -3 4.5 -19t12.5 -29l2 -2q52 -55 189 -55q163 0 163 105q0 38 -33 60.5t-83 29.5t-108.5 19.5t-109 29.5 t-84.5 61.5t-36 112.5q-2 97 73.5 149.5t217.5 52.5q121 0 204 -51q22 -11 37.5 -5.5t22.5 0.5q14 -11 -5 -41l-51 -79l-2 -2q-13 -21 -22 -21q-4 1 -9 3q-6 3 -6.5 12.5t-7 22.5t-27.5 25q-54 31 -134 31q-179 0 -179 -97q0 -33 25.5 -53t65.5 -29t89 -16t98 -19.5 t89 -32.5t65.5 -61.5t25.5 -101.5q0 -108 -77 -160.5t-202 -52.5z" />
<glyph unicode="t" horiz-adv-x="605" d="M239 0q-25 0 -25 16q0 7 17.5 21t17.5 34l2 504q0 15 -5.5 21.5t-22.5 6.5l-129 1q-20 0 -32 -4t-15.5 -9.5t-8 -9.5t-10.5 -4q-18 0 -18 37v63q0 23 26 23h535q24 0 24 -21v-56q0 -50 -19 -50q-8 0 -18 15t-32 15h-128q-26 0 -26 -27l-1 -506q0 -13 5.5 -21.5t11.5 -12 t11.5 -8t5.5 -10.5q0 -18 -24 -18h-142z" />
<glyph unicode="u" horiz-adv-x="751" d="M381 -14q-143 0 -220 84t-78 235l-2 320q0 16 -5 25.5t-10.5 12.5t-10.5 8t-5 12q0 17 31 17h116q19 0 26.5 -3.5t7.5 -14.5q0 -6 -5.5 -10.5t-12 -7t-12 -13t-5.5 -28.5v-318q0 -94 45.5 -156.5t139.5 -62.5q91 0 135.5 62.5t44.5 153.5v318q0 19 -5 30.5t-10.5 14.5 t-10.5 7t-5 10q0 12 7.5 15t24.5 3h108q11 0 17 -1t10 -5.5t4 -13.5q0 -6 -7.5 -10.5t-14.5 -16t-7 -33.5v-315q0 -152 -73 -235.5t-218 -83.5z" />
<glyph unicode="v" horiz-adv-x="686" d="M386 -2q-4 -9 -16.5 -9t-17.5 10l-328 631q-8 16 -19.5 25t-18 14t-6.5 13q0 18 21 18h129q15 0 20.5 -0.5t10 -5t4.5 -13.5t-8.5 -14t-11.5 -9.5t6 -26.5l206 -392q13 -22 24 -4l150 288q26 50 18 103q-2 15 -8.5 24.5t-13.5 12t-12.5 7.5t-5.5 14q0 16 24 16h125 q28 0 28 -14q0 -11 -10 -19.5t-7 -32.5q4 -28 -5.5 -73.5t-34.5 -89.5z" />
<glyph unicode="w" horiz-adv-x="912" d="M305 0l-255 611q-9 22 -19 35.5t-16.5 17t-10.5 8t-4 12.5q0 10 6.5 13t23.5 3h103q21 0 28.5 -4t7.5 -16q0 -6 -7.5 -12.5t-10.5 -13.5t5 -29l146 -340q6 -14 13.5 -14t12.5 14l63 164q11 29 5 44l-49 128q-7 18 -15 29t-13.5 14t-9 7.5t-3.5 13.5q0 15 25 15h117 q22 0 29 -2.5t7 -14.5q0 -8 -9 -15t-13.5 -14t2.5 -29l142 -339q5 -11 12 -11.5t13 11.5l121 331q8 27 3.5 33.5t-13.5 15t-9 19.5q0 15 36 15h102q41 0 41 -17q0 -11 -16 -25.5t-27 -43.5l-232 -612q-4 -11 -13 -11.5t-14 11.5l-140 321q-11 25 -20 0l-121 -323 q-3 -8 -11.5 -8.5t-12.5 8.5z" />
<glyph unicode="x" horiz-adv-x="721" d="M56 0q-16 0 -21 3t-5 13q0 12 16 23t23 20l204 280q9 13 0 25l-186 256q-13 17 -25 28t-18 14t-10 8t-4 14q0 16 29 16h122q40 0 40 -17q0 -8 -7.5 -14.5t-7.5 -16t15 -29.5l130 -168q7 -10 10.5 -10t10.5 10l129 176q13 22 11 26.5t-11 11.5t-9 16q0 10 9.5 12.5 t41.5 2.5h115q33 0 33 -14q0 -10 -5 -15.5t-17.5 -15.5t-23.5 -24l-201 -267q-11 -14 0 -30l197 -270q8 -10 29 -24t21 -26q0 -14 -27 -14h-122q-48 0 -48 16q0 7 5 15t4 18.5t-14 29.5l-117 171q-8 10 -10.5 9.5t-9.5 -9.5l-131 -171q-14 -23 -13 -29t8.5 -15.5t7.5 -19.5 q0 -7 -4 -10.5t-9 -4t-16 -0.5h-139z" />
<glyph unicode="y" horiz-adv-x="638" d="M251 0q-30 0 -30 15q0 6 16 18.5t16 32.5v157q0 23 -5 32l-222 379q-8 14 -17 21.5t-15 9t-10 6.5t-4 14q0 15 39 15h126q27 0 27 -15q0 -10 -9.5 -15.5t-13 -9t6.5 -24.5l152 -257q8 -14 17 0l155 258q8 17 5 21.5t-11 11.5t-8 15q0 15 26 15h134q32 0 32 -15 q0 -10 -5 -15t-12 -7t-19 -12t-22 -28l-216 -367q-9 -15 -9 -32v-158q0 -16 8 -24t16 -13.5t8 -13.5q0 -7 -4.5 -10.5t-9.5 -4t-17 -0.5h-125z" />
<glyph unicode="z" horiz-adv-x="595" d="M81 0q-21 0 -31 18l-19 32q-12 21 4 41l369 485q5 9 0.5 15t-14.5 6h-287q-24 0 -36 -16t-20 -16q-6 0 -9 1.5t-5.5 8.5t-2.5 21v78q0 11 10.5 18.5t24.5 7.5h448q31 0 39 -20l12 -30q9 -22 -7 -45l-357 -490q-3 -5 -1 -8.5t7 -3.5h269q25 0 41 15t21 15q15 0 15 -33v-67 q0 -14 -10.5 -23.5t-24.5 -9.5h-436z" />
<glyph unicode="{" />
<glyph unicode="|" />
<glyph unicode="}" />
<glyph unicode="~" />
<glyph unicode="&#xa1;" horiz-adv-x="219" d="M110 561q25 0 42 -17t17 -44q0 -28 -16 -44.5t-43 -16.5q-25 0 -42.5 18.5t-17.5 42.5q0 25 18 43t42 18zM89 368h37q30 0 30 -31l9 -442q1 -20 -5.5 -27t-25.5 -7h-47q-18 0 -25 7.5t-7 25.5l9 443q0 31 25 31z" />
<glyph unicode="&#xa2;" horiz-adv-x="399" d="M197 116q-15 0 -15 17v10q0 13 -20 20q-61 21 -96.5 68.5t-35.5 108.5q0 64 35.5 113t96.5 67q20 6 20 25v8q0 18 16 18h32q15 0 15 -19v-8q0 -18 23 -24q27 -7 41 -16q15 -10 29 -5t22 0q13 -9 0 -29l-32 -50q-16 -23 -35 -10q-3 2 -8.5 14.5t-17.5 18.5q-22 10 -22 -16 v-174q0 -25 21 -18q13 5 17.5 20t8.5 19q15 13 34 -6l34 -36q16 -18 4 -30q-6 -6 -18 -7t-26 -11q-28 -18 -50 -22q-16 -3 -20.5 -7.5t-4.5 -12.5v-10q0 -9 -3 -12.5t-13 -3.5h-32zM162 247q10 -7 15 -2.5t5 17.5v161q0 26 -23 10q-46 -32 -46 -90q0 -55 49 -96z" />
<glyph unicode="&#xa3;" horiz-adv-x="595" d="M78 0q-28 0 -28 29v58q0 18 15 48q19 40 31 97q4 19 -1 25t-25 6q-18 0 -18 19v51q0 18 20 18q23 0 29 5t6 27q0 23 -1 63.5t-1 56.5q0 90 63.5 150t144.5 60q65 0 108.5 -23t76.5 -74q9 -14 24.5 -18.5t19.5 -10.5q12 -19 -10 -32l-75 -43q-26 -15 -37 4q-5 9 -1 23.5 t-3 27.5q-28 49 -102 49q-40 0 -68.5 -31t-28.5 -82q0 -21 0.5 -60t0.5 -56q0 -12 1 -18t7 -12t19 -6h115q22 0 22 -21v-49q0 -18 -20 -18h-123q-22 0 -28 -25q-16 -78 -32 -111q-13 -29 15 -29h253q21 0 36.5 13.5t21.5 13.5q16 0 16 -25v-71q0 -18 -8 -23.5t-24 -5.5h-411 z" />
<glyph unicode="&#xa4;" horiz-adv-x="717" d="M336 32q-24 0 -24 27v21q0 18 -29 27q-64 19 -111.5 71.5t-68.5 117.5q-6 17 -25 17h-21q-27 0 -27 24v48q0 23 22 23h27q21 0 27 26q15 61 63.5 109.5t113.5 68.5q29 9 29 27v21q0 27 24 27h47q23 0 23 -22v-27q0 -18 25 -25q67 -20 115.5 -69t65.5 -112q6 -25 26 -25 h27q22 0 22 -23v-47q0 -24 -27 -24h-21q-22 0 -28 -30q-11 -59 -64 -110t-116 -67q-25 -6 -25 -25v-27q0 -22 -23 -22h-47zM360 199q64 0 110.5 46.5t46.5 112.5t-47 113t-111 47q-67 0 -112.5 -46.5t-45.5 -113.5q0 -66 46 -112.5t113 -46.5z" />
<glyph unicode="&#xa5;" horiz-adv-x="640" d="M251 0q-32 0 -32 13q0 8 17 22t17 31q0 14 -14 14h-107q-20 0 -20 19v43q0 13 4.5 17.5t20.5 4.5h100q16 0 16 18v29q0 15 -16 15h-105q-20 0 -20 19v43q0 13 4.5 17.5t20.5 4.5h60q18 0 10 15l-181 309q-10 16 -19.5 25t-14.5 10.5t-8.5 4.5t-3.5 11q0 15 39 15h126 q27 0 27 -15q0 -7 -9.5 -12.5t-13 -10.5t6.5 -26l152 -257q8 -14 17 0l155 258q14 15 0 29.5t-14 18.5q0 15 26 15h134q34 0 34 -15q0 -8 -4 -12t-11 -7t-19.5 -16.5t-25.5 -34.5l-175 -290q-3 -7 -0.5 -11t8.5 -4h62q20 0 20 -17v-49q0 -11 -4.5 -14.5t-15.5 -3.5h-106 q-14 0 -14 -15v-27q0 -20 15 -20h105q20 0 20 -17v-49q0 -11 -4.5 -14.5t-15.5 -3.5h-104q-10 0 -13 -3t-3 -11q0 -16 18 -30t18 -24q0 -3 -1 -5.5t-3 -3.5l-4 -2t-5.5 -1h-6h-7.5h-8h-125z" />
<glyph unicode="&#xa6;" />
<glyph unicode="&#xa7;" />
<glyph unicode="&#xa8;" horiz-adv-x="358" d="M80 746q-24 0 -42 18t-18 43q0 24 17.5 42.5t42.5 18.5q27 0 43 -16.5t16 -44.5q0 -27 -17 -44t-42 -17zM278 746q-24 0 -42 18t-18 43q0 24 17.5 42.5t42.5 18.5q27 0 43 -16.5t16 -44.5q0 -27 -17 -44t-42 -17z" />
<glyph unicode="&#xa9;" />
<glyph unicode="&#xab;" />
<glyph unicode="&#xac;" />
<glyph unicode="&#xad;" horiz-adv-x="502" d="M68 306q-18 0 -18 19v64q0 18 20 18h360q22 0 22 -21v-62q0 -18 -20 -18h-364z" />
<glyph unicode="&#xae;" />
<glyph unicode="&#xaf;" horiz-adv-x="444" d="M40 778q-20 0 -20 19v43q0 13 4.5 17.5t20.5 4.5h358q20 0 20 -17v-49q0 -11 -4.5 -14.5t-15.5 -3.5h-363z" />
<glyph unicode="&#xb0;" horiz-adv-x="358" d="M181 474q-59 0 -95 38t-36 99q0 54 38 92.5t93 38.5q57 0 92 -39.5t35 -93.5q0 -60 -36 -97.5t-91 -37.5zM181 534q28 0 47.5 21t19.5 54q0 27 -20 48.5t-47 21.5q-31 0 -52 -20.5t-21 -49.5q0 -33 21 -54t52 -21z" />
<glyph unicode="&#xb1;" />
<glyph unicode="&#xb4;" horiz-adv-x="187" d="M92 760q-53 0 -57.5 10t21.5 71q20 46 27.5 52.5t37.5 6.5q56 0 60.5 -10t-20.5 -63q-22 -50 -30.5 -58.5t-38.5 -8.5z" />
<glyph unicode="&#xb6;" />
<glyph unicode="&#xb7;" />
<glyph unicode="&#xb8;" horiz-adv-x="276" d="M149 -209q-64 0 -114 36q-14 9 0 35q10 17 26 10q50 -19 83 -19q15 0 23.5 13.5t3.5 27t-22 13.5q-7 0 -42.5 -6.5t-43.5 -6.5q-32 0 -40.5 10t2.5 30l33 66q5 10 56 7q27 -1 25 -6l-15 -34q-11 -26 17 -14q36 14 63 10q28 -5 41 -29.5t11 -57.5q-5 -39 -33.5 -62 t-73.5 -23z" />
<glyph unicode="&#xbb;" />
<glyph unicode="&#xbf;" horiz-adv-x="547" d="M279 562q24 0 42 -18t18 -43q0 -24 -17.5 -42.5t-42.5 -18.5q-27 0 -43 16.5t-16 44.5q0 27 17 44t42 17zM301 369q23 0 25 -31l8 -101q1 -8 -0.5 -13.5t-6 -9.5t-9 -6.5t-13.5 -4.5t-16 -3t-19 -3t-21 -3q-49 -8 -81 -46t-32 -89t36 -82.5t89 -31.5q65 0 109 44 q23 23 23.5 40t1.5 18q11 17 32 4l74 -44q24 -14 14 -28q-4 -6 -22.5 -13t-34.5 -28q-67 -89 -198 -89q-99 0 -164.5 59t-65.5 151q0 64 29 119t80 81q19 10 41.5 18t31 12t14.5 14t6 30q0 19 6 27.5t24 8.5h39z" />
<glyph unicode="&#xc0;" horiz-adv-x="660" d="M326 762q-30 0 -38 8t-29 58q-22 52 -16 61.5t56 9.5q28 0 35.5 -6.5t27.5 -51.5q26 -59 21.5 -69t-57.5 -10zM28 0q-28 0 -28 19q0 10 9 16t21.5 15.5t18.5 28.5l190 548q7 21 -3.5 35t-10.5 19q0 19 24 19h147q25 0 25 -19q0 -8 -13.5 -21t-5.5 -33l214 -553 q8 -21 26 -32.5t18 -22.5q0 -12 -8 -15.5t-30 -3.5h-120q-19 0 -26 3t-7 14q0 13 14.5 23t8.5 28l-18 50q-6 16 -26 16h-242q-21 0 -27 -14l-9 -35q-8 -33 3.5 -44.5t11.5 -23.5q0 -11 -10 -14t-34 -3h-113zM230 233h188q18 0 10 22l-99 276q-3 8 -8.5 8t-7.5 -7l-97 -281 q-6 -18 14 -18z" />
<glyph unicode="&#xc1;" horiz-adv-x="660" d="M319 760q-53 0 -57.5 10t21.5 71q20 46 27.5 52.5t37.5 6.5q56 0 60.5 -10t-20.5 -63q-22 -50 -30.5 -58.5t-38.5 -8.5zM28 0q-28 0 -28 19q0 10 9 16t21.5 15.5t18.5 28.5l190 548q7 21 -3.5 35t-10.5 19q0 19 24 19h147q25 0 25 -19q0 -8 -13.5 -21t-5.5 -33l214 -553 q8 -21 26 -32.5t18 -22.5q0 -12 -8 -15.5t-30 -3.5h-120q-19 0 -26 3t-7 14q0 13 14.5 23t8.5 28l-18 50q-6 16 -26 16h-242q-21 0 -27 -14l-9 -35q-8 -33 3.5 -44.5t11.5 -23.5q0 -11 -10 -14t-34 -3h-113zM230 233h188q18 0 10 22l-99 276q-3 8 -8.5 8t-7.5 -7l-97 -281 q-6 -18 14 -18z" />
<glyph unicode="&#xc2;" horiz-adv-x="660" d="M323 916q21 0 52 -25l97 -86q12 -11 6 -21t-22 -10h-47q-20 0 -38 16l-39 35q-10 9 -19 0l-41 -35q-18 -16 -37 -16h-51q-16 0 -21.5 10.5t7.5 23.5l97 84q29 24 56 24zM28 0q-28 0 -28 19q0 10 9 16t21.5 15.5t18.5 28.5l190 548q7 21 -3.5 35t-10.5 19q0 19 24 19h147 q25 0 25 -19q0 -8 -13.5 -21t-5.5 -33l214 -553q8 -21 26 -32.5t18 -22.5q0 -12 -8 -15.5t-30 -3.5h-120q-19 0 -26 3t-7 14q0 13 14.5 23t8.5 28l-18 50q-6 16 -26 16h-242q-21 0 -27 -14l-9 -35q-8 -33 3.5 -44.5t11.5 -23.5q0 -11 -10 -14t-34 -3h-113zM230 233h188 q18 0 10 22l-99 276q-3 8 -8.5 8t-7.5 -7l-97 -281q-6 -18 14 -18z" />
<glyph unicode="&#xc3;" horiz-adv-x="660" d="M401 748q-39 0 -79.5 30.5t-75.5 30.5q-46 0 -85 -53q-8 -10 -15.5 -8.5t-27.5 16.5q-18 14 -21.5 22.5t3.5 18.5q53 83 143 83q38 0 67.5 -15t50.5 -29.5t39 -14.5q11 0 21.5 2.5t17.5 6.5t14.5 9.5t11 9t8 8.5t5.5 6q16 16 40 -3q23 -17 27 -25.5t-4 -17.5 q-9 -13 -23 -27.5t-47.5 -32t-69.5 -17.5zM28 0q-28 0 -28 19q0 10 9 16t21.5 15.5t18.5 28.5l190 548q7 21 -3.5 35t-10.5 19q0 19 24 19h147q25 0 25 -19q0 -8 -13.5 -21t-5.5 -33l214 -553q8 -21 26 -32.5t18 -22.5q0 -12 -8 -15.5t-30 -3.5h-120q-19 0 -26 3t-7 14 q0 13 14.5 23t8.5 28l-18 50q-6 16 -26 16h-242q-21 0 -27 -14l-9 -35q-8 -33 3.5 -44.5t11.5 -23.5q0 -11 -10 -14t-34 -3h-113zM230 233h188q18 0 10 22l-99 276q-3 8 -8.5 8t-7.5 -7l-97 -281q-6 -18 14 -18z" />
<glyph unicode="&#xc4;" horiz-adv-x="660" d="M224 746q-24 0 -42 18t-18 43q0 24 17.5 42.5t42.5 18.5q27 0 43 -16.5t16 -44.5q0 -27 -17 -44t-42 -17zM422 746q-24 0 -42 18t-18 43q0 24 17.5 42.5t42.5 18.5q27 0 43 -16.5t16 -44.5q0 -27 -17 -44t-42 -17zM28 0q-28 0 -28 19q0 10 9 16t21.5 15.5t18.5 28.5 l190 548q7 21 -3.5 35t-10.5 19q0 19 24 19h147q25 0 25 -19q0 -8 -13.5 -21t-5.5 -33l214 -553q8 -21 26 -32.5t18 -22.5q0 -12 -8 -15.5t-30 -3.5h-120q-19 0 -26 3t-7 14q0 13 14.5 23t8.5 28l-18 50q-6 16 -26 16h-242q-21 0 -27 -14l-9 -35q-8 -33 3.5 -44.5 t11.5 -23.5q0 -11 -10 -14t-34 -3h-113zM230 233h188q18 0 10 22l-99 276q-3 8 -8.5 8t-7.5 -7l-97 -281q-6 -18 14 -18z" />
<glyph unicode="&#xc5;" horiz-adv-x="660" d="M324 737q-47 0 -77 31t-30 80q0 45 31 76t76 31q46 0 74.5 -32.5t28.5 -75.5q0 -49 -29 -79.5t-74 -30.5zM323 801q18 0 29.5 12.5t11.5 32.5q0 17 -11.5 30t-29.5 13q-19 0 -31.5 -12.5t-12.5 -30.5q0 -20 12 -32.5t32 -12.5zM28 0q-28 0 -28 19q0 10 9 16t21.5 15.5 t18.5 28.5l190 548q7 21 -3.5 35t-10.5 19q0 19 24 19h147q25 0 25 -19q0 -8 -13.5 -21t-5.5 -33l214 -553q8 -21 26 -32.5t18 -22.5q0 -12 -8 -15.5t-30 -3.5h-120q-19 0 -26 3t-7 14q0 13 14.5 23t8.5 28l-18 50q-6 16 -26 16h-242q-21 0 -27 -14l-9 -35q-8 -33 3.5 -44.5 t11.5 -23.5q0 -11 -10 -14t-34 -3h-113zM230 233h188q18 0 10 22l-99 276q-3 8 -8.5 8t-7.5 -7l-97 -281q-6 -18 14 -18z" />
<glyph unicode="&#xc6;" horiz-adv-x="966" d="M-12 0q-28 0 -28 15q0 11 18.5 19.5t31.5 30.5l319 554q12 25 9 31.5t-13 13t-10 14.5q0 10 5 15.5t10 6t15 0.5h546q25 0 25 -22v-84q0 -35 -19 -35q-6 0 -10.5 5t-8 11.5t-15 11.5t-30.5 5h-312q-21 0 -21 -20v-134q0 -17 4 -22.5t19 -5.5h206q19 0 30.5 13.5 t16.5 13.5q9 0 13 -5.5t5 -12.5t1 -20v-91q0 -36 -21 -36q-4 0 -16 15t-29 15h-198q-14 0 -21.5 -6t-6.5 -18v-152q0 -16 6.5 -20t23.5 -4l308 -3q17 0 26.5 5.5t11.5 12t6.5 12t12.5 5.5q12 0 15 -8.5t3 -26.5v-78q0 -21 -17 -21h-515q-39 0 -39 12q0 11 11 17t22 16t11 31 v38q0 20 -19 20h-177q-17 0 -24 -13l-29 -56q-10 -23 -6.5 -26.5t12.5 -7.5t9 -14q0 -11 -8.5 -14t-31.5 -3h-127zM246 233h124q9 0 14 6t5 13l-1 228q0 6 -8 8t-13 -6l-129 -227q-5 -7 -3 -14.5t11 -7.5z" />
<glyph unicode="&#xc7;" horiz-adv-x="705" d="M669 103q12 -13 0 -25q-3 -3 -18 -4t-34 -15q-55 -39 -94 -53q-59 -21 -138 -21h-10l-8 -18q-11 -26 17 -14q36 14 63 10q28 -5 41 -29.5t11 -57.5q-5 -39 -33.5 -62t-73.5 -23q-64 0 -114 36q-14 9 0 35q10 17 26 10q50 -19 83 -19q15 0 23.5 13.5t3.5 27t-22 13.5 q-7 0 -42.5 -6.5t-43.5 -6.5q-32 0 -40.5 10t2.5 30l31 61q-120 30 -194.5 130t-74.5 229q0 153 99 256t264 103q130 0 207 -58q13 -10 32 -5t25 0q13 -10 -8 -43l-42 -65q-15 -24 -32 -15q-5 3 -9.5 17t-15.5 24q-49 43 -157 43q-107 0 -176 -73t-69 -184q0 -108 69 -186.5 t168 -78.5q115 0 165 50q16 17 15 31t4 19q15 15 28 -2z" />
<glyph unicode="&#xc8;" horiz-adv-x="651" d="M366 762q-30 0 -38 8t-29 58q-22 52 -16 61.5t56 9.5q28 0 35.5 -6.5t27.5 -51.5q26 -59 21.5 -69t-57.5 -10zM89 0q-39 0 -39 12q0 11 11 17t22 16t11 31l-1 538q0 22 -6.5 34t-13.5 14.5t-13.5 8t-6.5 16.5q0 4 2 6.5t6 3.5l8 2t10.5 1h11.5h13h13h479q25 0 25 -22v-75 q0 -35 -19 -35q-6 0 -10.5 5t-8 11.5t-15 11.5t-30.5 5h-312q-19 0 -19 -20v-149q0 -16 4.5 -22t18.5 -6h204q19 0 30.5 13.5t16.5 13.5q9 0 13 -5.5t5 -12.5t1 -20v-81q0 -36 -21 -36q-4 0 -16 15t-29 15h-198q-14 0 -21.5 -6t-6.5 -18v-159q0 -16 6.5 -20t23.5 -4h308 q17 0 26.5 5.5t11.5 12t6.5 12t12.5 5.5q12 0 15 -8.5t3 -26.5v-78q0 -21 -17 -21h-515z" />
<glyph unicode="&#xc9;" horiz-adv-x="651" d="M359 760q-53 0 -57.5 10t21.5 71q20 46 27.5 52.5t37.5 6.5q56 0 60.5 -10t-20.5 -63q-22 -50 -30.5 -58.5t-38.5 -8.5zM89 0q-39 0 -39 12q0 11 11 17t22 16t11 31l-1 538q0 22 -6.5 34t-13.5 14.5t-13.5 8t-6.5 16.5q0 4 2 6.5t6 3.5l8 2t10.5 1h11.5h13h13h479 q25 0 25 -22v-75q0 -35 -19 -35q-6 0 -10.5 5t-8 11.5t-15 11.5t-30.5 5h-312q-19 0 -19 -20v-149q0 -16 4.5 -22t18.5 -6h204q19 0 30.5 13.5t16.5 13.5q9 0 13 -5.5t5 -12.5t1 -20v-81q0 -36 -21 -36q-4 0 -16 15t-29 15h-198q-14 0 -21.5 -6t-6.5 -18v-159q0 -16 6.5 -20 t23.5 -4h308q17 0 26.5 5.5t11.5 12t6.5 12t12.5 5.5q12 0 15 -8.5t3 -26.5v-78q0 -21 -17 -21h-515z" />
<glyph unicode="&#xca;" horiz-adv-x="651" d="M363 916q21 0 52 -25l97 -86q12 -11 6 -21t-22 -10h-47q-20 0 -38 16l-39 35q-10 9 -19 0l-41 -35q-18 -16 -37 -16h-51q-16 0 -21.5 10.5t7.5 23.5l97 84q29 24 56 24zM89 0q-39 0 -39 12q0 11 11 17t22 16t11 31l-1 538q0 22 -6.5 34t-13.5 14.5t-13.5 8t-6.5 16.5 q0 4 2 6.5t6 3.5l8 2t10.5 1h11.5h13h13h479q25 0 25 -22v-75q0 -35 -19 -35q-6 0 -10.5 5t-8 11.5t-15 11.5t-30.5 5h-312q-19 0 -19 -20v-149q0 -16 4.5 -22t18.5 -6h204q19 0 30.5 13.5t16.5 13.5q9 0 13 -5.5t5 -12.5t1 -20v-81q0 -36 -21 -36q-4 0 -16 15t-29 15h-198 q-14 0 -21.5 -6t-6.5 -18v-159q0 -16 6.5 -20t23.5 -4h308q17 0 26.5 5.5t11.5 12t6.5 12t12.5 5.5q12 0 15 -8.5t3 -26.5v-78q0 -21 -17 -21h-515z" />
<glyph unicode="&#xcb;" horiz-adv-x="651" d="M264 746q-24 0 -42 18t-18 43q0 24 17.5 42.5t42.5 18.5q27 0 43 -16.5t16 -44.5q0 -27 -17 -44t-42 -17zM462 746q-24 0 -42 18t-18 43q0 24 17.5 42.5t42.5 18.5q27 0 43 -16.5t16 -44.5q0 -27 -17 -44t-42 -17zM89 0q-39 0 -39 12q0 11 11 17t22 16t11 31l-1 538 q0 22 -6.5 34t-13.5 14.5t-13.5 8t-6.5 16.5q0 4 2 6.5t6 3.5l8 2t10.5 1h11.5h13h13h479q25 0 25 -22v-75q0 -35 -19 -35q-6 0 -10.5 5t-8 11.5t-15 11.5t-30.5 5h-312q-19 0 -19 -20v-149q0 -16 4.5 -22t18.5 -6h204q19 0 30.5 13.5t16.5 13.5q9 0 13 -5.5t5 -12.5t1 -20 v-81q0 -36 -21 -36q-4 0 -16 15t-29 15h-198q-14 0 -21.5 -6t-6.5 -18v-159q0 -16 6.5 -20t23.5 -4h308q17 0 26.5 5.5t11.5 12t6.5 12t12.5 5.5q12 0 15 -8.5t3 -26.5v-78q0 -21 -17 -21h-515z" />
<glyph unicode="&#xcc;" horiz-adv-x="284" d="M148 762q-30 0 -38 8t-29 58q-22 52 -16 61.5t56 9.5q28 0 35.5 -6.5t27.5 -51.5q26 -59 21.5 -69t-57.5 -10zM85 0q-19 0 -27 3t-8 15q0 5 18 22.5t18 45.5v534q0 30 -14.5 45t-14.5 20q0 15 31 15h110q35 0 35 -15q0 -6 -9 -11.5t-18 -18t-9 -35.5v-534q0 -23 9.5 -36 t18.5 -20.5t9 -15.5q0 -14 -36 -14h-113z" />
<glyph unicode="&#xcd;" horiz-adv-x="284" d="M141 760q-53 0 -57.5 10t21.5 71q20 46 27.5 52.5t37.5 6.5q56 0 60.5 -10t-20.5 -63q-22 -50 -30.5 -58.5t-38.5 -8.5zM85 0q-19 0 -27 3t-8 15q0 5 18 22.5t18 45.5v534q0 30 -14.5 45t-14.5 20q0 15 31 15h110q35 0 35 -15q0 -6 -9 -11.5t-18 -18t-9 -35.5v-534 q0 -23 9.5 -36t18.5 -20.5t9 -15.5q0 -14 -36 -14h-113z" />
<glyph unicode="&#xce;" horiz-adv-x="284" d="M145 916q21 0 52 -25l97 -86q12 -11 6 -21t-22 -10h-47q-20 0 -38 16l-39 35q-10 9 -19 0l-41 -35q-18 -16 -37 -16h-51q-16 0 -21.5 10.5t7.5 23.5l97 84q29 24 56 24zM85 0q-19 0 -27 3t-8 15q0 5 18 22.5t18 45.5v534q0 30 -14.5 45t-14.5 20q0 15 31 15h110 q35 0 35 -15q0 -6 -9 -11.5t-18 -18t-9 -35.5v-534q0 -23 9.5 -36t18.5 -20.5t9 -15.5q0 -14 -36 -14h-113z" />
<glyph unicode="&#xcf;" horiz-adv-x="284" d="M46 746q-24 0 -42 18t-18 43q0 24 17.5 42.5t42.5 18.5q27 0 43 -16.5t16 -44.5q0 -27 -17 -44t-42 -17zM244 746q-24 0 -42 18t-18 43q0 24 17.5 42.5t42.5 18.5q27 0 43 -16.5t16 -44.5q0 -27 -17 -44t-42 -17zM85 0q-19 0 -27 3t-8 15q0 5 18 22.5t18 45.5v534 q0 30 -14.5 45t-14.5 20q0 15 31 15h110q35 0 35 -15q0 -6 -9 -11.5t-18 -18t-9 -35.5v-534q0 -23 9.5 -36t18.5 -20.5t9 -15.5q0 -14 -36 -14h-113z" />
<glyph unicode="&#xd0;" horiz-adv-x="728" d="M94 0q-44 0 -44 20q0 7 6 12t13.5 9t13.5 15t6 29v231q0 21 -21 21q-20 0 -20 19v69q0 13 4.5 17.5t20.5 4.5t16 23v142q0 21 -6 34.5t-12.5 17.5t-12.5 9.5t-6 11.5q0 15 39 15h6h277q151 0 242.5 -96.5t91.5 -248.5t-91.5 -253.5t-241.5 -101.5h-281zM224 110h118 q117 0 181 61t64 184q0 234 -245 232l-118 -1q-24 0 -24 -21v-97q0 -13 5 -17t16 -4h210q20 0 20 -17v-75q0 -11 -4.5 -14.5t-15.5 -3.5h-207q-24 0 -24 -21v-179q0 -17 4.5 -22t19.5 -5z" />
<glyph unicode="&#xd1;" horiz-adv-x="798" d="M483 748q-39 0 -79.5 30.5t-75.5 30.5q-46 0 -85 -53q-8 -10 -15.5 -8.5t-27.5 16.5q-18 14 -21.5 22.5t3.5 18.5q53 83 143 83q38 0 67.5 -15t50.5 -29.5t39 -14.5q11 0 21.5 2.5t17.5 6.5t14.5 9.5t11 9t8 8.5t5.5 6q16 16 40 -3q23 -17 27 -25.5t-4 -17.5 q-9 -13 -23 -27.5t-47.5 -32t-69.5 -17.5zM87 0q-37 0 -37 14q0 9 6 14.5t13.5 9.5t13.5 16.5t5 33.5v526q0 21 -5.5 33.5t-12 16.5t-12 9t-5.5 12q0 10 9.5 12.5t35.5 2.5h71q29 0 29 -26v-70v-5.5t1 -5t1.5 -4t2 -3.5t2 -3.5t2.5 -3.5l3 -3l4 -4l4 -4l357 -307 q10 -10 17.5 -6.5t7.5 20.5v323q0 27 -5.5 43t-12.5 19.5t-12.5 9t-5.5 13.5q0 12 11.5 14.5t47.5 2.5h68q31 0 44 -3.5t13 -15.5q0 -8 -5.5 -13t-12.5 -8.5t-12.5 -17.5t-5.5 -38v-528q0 -21 16 -34.5t16 -24.5q0 -17 -31 -17h-94q-19 0 -19 24v53q0 18 -21 39l-350 297 q-13 11 -21.5 7.5t-8.5 -20.5v-314q0 -21 6.5 -33.5t14.5 -15.5t14.5 -8.5t6.5 -14.5q0 -10 -6 -12t-23 -2h-8h-117z" />
<glyph unicode="&#xd2;" horiz-adv-x="778" d="M395 762q-30 0 -38 8t-29 58q-22 52 -16 61.5t56 9.5q28 0 35.5 -6.5t27.5 -51.5q26 -59 21.5 -69t-57.5 -10zM30 346q0 89 31 161t83 116.5t116.5 68t133.5 23.5q68 -1 130.5 -24.5t113 -68t80.5 -116t30 -160.5t-31.5 -160t-83.5 -115t-116.5 -66.5t-134.5 -21.5 q-92 2 -170 41t-130 123t-52 199zM150 346q0 -120 70 -187.5t166 -69.5q99 -2 172 66t73 191t-70.5 192t-167.5 70q-98 1 -170.5 -68t-72.5 -194z" />
<glyph unicode="&#xd3;" horiz-adv-x="778" d="M388 760q-53 0 -57.5 10t21.5 71q20 46 27.5 52.5t37.5 6.5q56 0 60.5 -10t-20.5 -63q-22 -50 -30.5 -58.5t-38.5 -8.5zM30 346q0 89 31 161t83 116.5t116.5 68t133.5 23.5q68 -1 130.5 -24.5t113 -68t80.5 -116t30 -160.5t-31.5 -160t-83.5 -115t-116.5 -66.5 t-134.5 -21.5q-92 2 -170 41t-130 123t-52 199zM150 346q0 -120 70 -187.5t166 -69.5q99 -2 172 66t73 191t-70.5 192t-167.5 70q-98 1 -170.5 -68t-72.5 -194z" />
<glyph unicode="&#xd4;" horiz-adv-x="778" d="M392 916q21 0 52 -25l97 -86q12 -11 6 -21t-22 -10h-47q-20 0 -38 16l-39 35q-10 9 -19 0l-41 -35q-18 -16 -37 -16h-51q-16 0 -21.5 10.5t7.5 23.5l97 84q29 24 56 24zM30 346q0 89 31 161t83 116.5t116.5 68t133.5 23.5q68 -1 130.5 -24.5t113 -68t80.5 -116t30 -160.5 t-31.5 -160t-83.5 -115t-116.5 -66.5t-134.5 -21.5q-92 2 -170 41t-130 123t-52 199zM150 346q0 -120 70 -187.5t166 -69.5q99 -2 172 66t73 191t-70.5 192t-167.5 70q-98 1 -170.5 -68t-72.5 -194z" />
<glyph unicode="&#xd5;" horiz-adv-x="778" d="M470 748q-39 0 -79.5 30.5t-75.5 30.5q-46 0 -85 -53q-8 -10 -15.5 -8.5t-27.5 16.5q-18 14 -21.5 22.5t3.5 18.5q53 83 143 83q38 0 67.5 -15t50.5 -29.5t39 -14.5q11 0 21.5 2.5t17.5 6.5t14.5 9.5t11 9t8 8.5t5.5 6q16 16 40 -3q23 -17 27 -25.5t-4 -17.5 q-9 -13 -23 -27.5t-47.5 -32t-69.5 -17.5zM30 346q0 89 31 161t83 116.5t116.5 68t133.5 23.5q68 -1 130.5 -24.5t113 -68t80.5 -116t30 -160.5t-31.5 -160t-83.5 -115t-116.5 -66.5t-134.5 -21.5q-92 2 -170 41t-130 123t-52 199zM150 346q0 -120 70 -187.5t166 -69.5 q99 -2 172 66t73 191t-70.5 192t-167.5 70q-98 1 -170.5 -68t-72.5 -194z" />
<glyph unicode="&#xd6;" horiz-adv-x="778" d="M293 746q-24 0 -42 18t-18 43q0 24 17.5 42.5t42.5 18.5q27 0 43 -16.5t16 -44.5q0 -27 -17 -44t-42 -17zM491 746q-24 0 -42 18t-18 43q0 24 17.5 42.5t42.5 18.5q27 0 43 -16.5t16 -44.5q0 -27 -17 -44t-42 -17zM30 346q0 89 31 161t83 116.5t116.5 68t133.5 23.5 q68 -1 130.5 -24.5t113 -68t80.5 -116t30 -160.5t-31.5 -160t-83.5 -115t-116.5 -66.5t-134.5 -21.5q-92 2 -170 41t-130 123t-52 199zM150 346q0 -120 70 -187.5t166 -69.5q99 -2 172 66t73 191t-70.5 192t-167.5 70q-98 1 -170.5 -68t-72.5 -194z" />
<glyph unicode="&#xd7;" horiz-adv-x="400" d="M295 208q-13 -14 -29 2l-52 52q-16 16 -35 -3l-50 -50q-14 -14 -27 0l-45 46q-11 12 2 26l55 56q12 13 -2 27l-54 54q-15 15 -2 28l45 45q16 16 33 0l51 -50q17 -17 31 -2l51 51q17 17 31 1l43 -44q13 -13 -1 -27l-51 -51q-16 -16 -1 -31l53 -53q15 -15 2 -29z" />
<glyph unicode="&#xd8;" horiz-adv-x="778" d="M97 -4l-42 39q-20 19 0 41l29 32q8 9 9 12t-7 20q-56 92 -56 206q0 81 26 147.5t69 110.5t99.5 72t117 35.5t122 -4t114.5 -41.5q18 -10 33 5l34 37q7 7 17 8t16 -5l45 -42q19 -18 0 -37l-35 -36q-13 -11 -3 -29q63 -115 63 -221q0 -82 -28 -149.5t-73.5 -110t-104 -68.5 t-120 -31t-121 7.5t-106.5 42.5q-13 9 -27 -5l-33 -36q-8 -8 -19 -8t-19 8zM196 227l304 325q19 22 -5 34q-42 21 -89.5 24.5t-92.5 -12.5t-81.5 -47.5t-59 -85t-22.5 -119.5q0 -61 21 -114q9 -23 25 -5zM273 120q54 -29 116.5 -28.5t116 26.5t89.5 86t36 142q0 86 -25 123 q-13 20 -30 3l-306 -329q-14 -14 3 -23z" />
<glyph unicode="&#xd9;" horiz-adv-x="751" d="M392 762q-30 0 -38 8t-29 58q-22 52 -16 61.5t56 9.5q28 0 35.5 -6.5t27.5 -51.5q26 -59 21.5 -69t-57.5 -10zM381 -14q-143 0 -220 84t-78 235l-2 320q0 16 -5 25.5t-10.5 12.5t-10.5 8t-5 12q0 17 31 17h116q19 0 26.5 -3.5t7.5 -14.5q0 -6 -5.5 -10.5t-12 -7t-12 -13 t-5.5 -28.5v-318q0 -94 45.5 -156.5t139.5 -62.5q91 0 135.5 62.5t44.5 153.5v318q0 19 -5 30.5t-10.5 14.5t-10.5 7t-5 10q0 12 7.5 15t24.5 3h108q11 0 17 -1t10 -5.5t4 -13.5q0 -6 -7.5 -10.5t-14.5 -16t-7 -33.5v-315q0 -152 -73 -235.5t-218 -83.5z" />
<glyph unicode="&#xda;" horiz-adv-x="751" d="M385 760q-53 0 -57.5 10t21.5 71q20 46 27.5 52.5t37.5 6.5q56 0 60.5 -10t-20.5 -63q-22 -50 -30.5 -58.5t-38.5 -8.5zM381 -14q-143 0 -220 84t-78 235l-2 320q0 16 -5 25.5t-10.5 12.5t-10.5 8t-5 12q0 17 31 17h116q19 0 26.5 -3.5t7.5 -14.5q0 -6 -5.5 -10.5t-12 -7 t-12 -13t-5.5 -28.5v-318q0 -94 45.5 -156.5t139.5 -62.5q91 0 135.5 62.5t44.5 153.5v318q0 19 -5 30.5t-10.5 14.5t-10.5 7t-5 10q0 12 7.5 15t24.5 3h108q11 0 17 -1t10 -5.5t4 -13.5q0 -6 -7.5 -10.5t-14.5 -16t-7 -33.5v-315q0 -152 -73 -235.5t-218 -83.5z" />
<glyph unicode="&#xdb;" horiz-adv-x="751" d="M389 916q21 0 52 -25l97 -86q12 -11 6 -21t-22 -10h-47q-20 0 -38 16l-39 35q-10 9 -19 0l-41 -35q-18 -16 -37 -16h-51q-16 0 -21.5 10.5t7.5 23.5l97 84q29 24 56 24zM381 -14q-143 0 -220 84t-78 235l-2 320q0 16 -5 25.5t-10.5 12.5t-10.5 8t-5 12q0 17 31 17h116 q19 0 26.5 -3.5t7.5 -14.5q0 -6 -5.5 -10.5t-12 -7t-12 -13t-5.5 -28.5v-318q0 -94 45.5 -156.5t139.5 -62.5q91 0 135.5 62.5t44.5 153.5v318q0 19 -5 30.5t-10.5 14.5t-10.5 7t-5 10q0 12 7.5 15t24.5 3h108q11 0 17 -1t10 -5.5t4 -13.5q0 -6 -7.5 -10.5t-14.5 -16 t-7 -33.5v-315q0 -152 -73 -235.5t-218 -83.5z" />
<glyph unicode="&#xdc;" horiz-adv-x="751" d="M290 746q-24 0 -42 18t-18 43q0 24 17.5 42.5t42.5 18.5q27 0 43 -16.5t16 -44.5q0 -27 -17 -44t-42 -17zM488 746q-24 0 -42 18t-18 43q0 24 17.5 42.5t42.5 18.5q27 0 43 -16.5t16 -44.5q0 -27 -17 -44t-42 -17zM381 -14q-143 0 -220 84t-78 235l-2 320q0 16 -5 25.5 t-10.5 12.5t-10.5 8t-5 12q0 17 31 17h116q19 0 26.5 -3.5t7.5 -14.5q0 -6 -5.5 -10.5t-12 -7t-12 -13t-5.5 -28.5v-318q0 -94 45.5 -156.5t139.5 -62.5q91 0 135.5 62.5t44.5 153.5v318q0 19 -5 30.5t-10.5 14.5t-10.5 7t-5 10q0 12 7.5 15t24.5 3h108q11 0 17 -1t10 -5.5 t4 -13.5q0 -6 -7.5 -10.5t-14.5 -16t-7 -33.5v-315q0 -152 -73 -235.5t-218 -83.5z" />
<glyph unicode="&#xdd;" horiz-adv-x="638" d="M315 760q-53 0 -57.5 10t21.5 71q20 46 27.5 52.5t37.5 6.5q56 0 60.5 -10t-20.5 -63q-22 -50 -30.5 -58.5t-38.5 -8.5zM251 0q-30 0 -30 15q0 6 16 18.5t16 32.5v157q0 23 -5 32l-222 379q-8 14 -17 21.5t-15 9t-10 6.5t-4 14q0 15 39 15h126q27 0 27 -15 q0 -10 -9.5 -15.5t-13 -9t6.5 -24.5l152 -257q8 -14 17 0l155 258q8 17 5 21.5t-11 11.5t-8 15q0 15 26 15h134q32 0 32 -15q0 -10 -5 -15t-12 -7t-19 -12t-22 -28l-216 -367q-9 -15 -9 -32v-158q0 -16 8 -24t16 -13.5t8 -13.5q0 -7 -4.5 -10.5t-9.5 -4t-17 -0.5h-125z" />
<glyph unicode="&#xde;" horiz-adv-x="686" d="M94 0q-25 0 -34.5 3t-9.5 15q0 6 11 13.5t22.5 20.5t11.5 34l1 534q0 23 -8.5 35t-17.5 17.5t-9 12.5q0 15 36 15h110q39 0 39 -15q0 -6 -10 -11.5t-20 -18t-10 -35.5v-11q0 -18 18 -18h195q104 0 170.5 -54.5t66.5 -173.5q0 -113 -63 -177.5t-188 -64.5h-182 q-16 0 -16 -15v-20q0 -18 7 -30.5t15.5 -17.5t15.5 -11t7 -13q0 -14 -45 -14h-113zM224 235h175q141 0 141 127q0 60 -40 89.5t-107 29.5h-169q-18 0 -18 -18l1 -208q0 -12 3.5 -16t13.5 -4z" />
<glyph unicode="&#xdf;" horiz-adv-x="667" d="M493 -19q-39 -15 -50 12l-23 62q-14 36 1 43q8 4 26.5 -7.5t34.5 4.5q46 40 46 114q0 48 -16.5 74.5t-36 31.5t-36 13.5t-16.5 24.5v40q0 13 10 20.5t22 12t22 23t10 51.5q0 50 -37.5 82t-106.5 32q-63 0 -101.5 -47.5t-39.5 -132.5l-1 -145l-1 -203q0 -22 10.5 -35 t21 -20.5t10.5 -15.5q0 -5 -2.5 -8.5t-8.5 -5t-9 -2t-12 0t-10 0.5h-100q-50 0 -50 15q0 9 9.5 15t19 18.5t9.5 38.5v336q0 142 67 215.5t188 73.5q110 0 179.5 -52.5t69.5 -159.5q0 -70 -42 -104q-13 -11 2 -17q8 -4 20.5 -15t28 -31t26 -53t10.5 -71q0 -83 -39.5 -143.5 t-104.5 -84.5z" />
<glyph unicode="&#xe0;" horiz-adv-x="660" d="M331 762q-30 0 -38 8t-29 58q-22 52 -16 61.5t56 9.5q28 0 35.5 -6.5t27.5 -51.5q26 -59 21.5 -69t-57.5 -10zM28 0q-28 0 -28 19q0 10 9 16t21.5 15.5t18.5 28.5l190 548q7 21 -3.5 35t-10.5 19q0 19 24 19h147q25 0 25 -19q0 -8 -13.5 -21t-5.5 -33l214 -553 q8 -21 26 -32.5t18 -22.5q0 -12 -8 -15.5t-30 -3.5h-120q-19 0 -26 3t-7 14q0 13 14.5 23t8.5 28l-18 50q-6 16 -26 16h-242q-21 0 -27 -14l-9 -35q-8 -33 3.5 -44.5t11.5 -23.5q0 -11 -10 -14t-34 -3h-113zM230 233h188q18 0 10 22l-99 276q-3 8 -8.5 8t-7.5 -7l-97 -281 q-6 -18 14 -18z" />
<glyph unicode="&#xe1;" horiz-adv-x="660" d="M324 760q-53 0 -57.5 10t21.5 71q20 46 27.5 52.5t37.5 6.5q56 0 60.5 -10t-20.5 -63q-22 -50 -30.5 -58.5t-38.5 -8.5zM28 0q-28 0 -28 19q0 10 9 16t21.5 15.5t18.5 28.5l190 548q7 21 -3.5 35t-10.5 19q0 19 24 19h147q25 0 25 -19q0 -8 -13.5 -21t-5.5 -33l214 -553 q8 -21 26 -32.5t18 -22.5q0 -12 -8 -15.5t-30 -3.5h-120q-19 0 -26 3t-7 14q0 13 14.5 23t8.5 28l-18 50q-6 16 -26 16h-242q-21 0 -27 -14l-9 -35q-8 -33 3.5 -44.5t11.5 -23.5q0 -11 -10 -14t-34 -3h-113zM230 233h188q18 0 10 22l-99 276q-3 8 -8.5 8t-7.5 -7l-97 -281 q-6 -18 14 -18z" />
<glyph unicode="&#xe2;" horiz-adv-x="660" d="M328 916q21 0 52 -25l97 -86q12 -11 6 -21t-22 -10h-47q-20 0 -38 16l-39 35q-10 9 -19 0l-41 -35q-18 -16 -37 -16h-51q-16 0 -21.5 10.5t7.5 23.5l97 84q29 24 56 24zM28 0q-28 0 -28 19q0 10 9 16t21.5 15.5t18.5 28.5l190 548q7 21 -3.5 35t-10.5 19q0 19 24 19h147 q25 0 25 -19q0 -8 -13.5 -21t-5.5 -33l214 -553q8 -21 26 -32.5t18 -22.5q0 -12 -8 -15.5t-30 -3.5h-120q-19 0 -26 3t-7 14q0 13 14.5 23t8.5 28l-18 50q-6 16 -26 16h-242q-21 0 -27 -14l-9 -35q-8 -33 3.5 -44.5t11.5 -23.5q0 -11 -10 -14t-34 -3h-113zM230 233h188 q18 0 10 22l-99 276q-3 8 -8.5 8t-7.5 -7l-97 -281q-6 -18 14 -18z" />
<glyph unicode="&#xe3;" horiz-adv-x="660" d="M406 748q-39 0 -79.5 30.5t-75.5 30.5q-46 0 -85 -53q-8 -10 -15.5 -8.5t-27.5 16.5q-18 14 -21.5 22.5t3.5 18.5q53 83 143 83q38 0 67.5 -15t50.5 -29.5t39 -14.5q11 0 21.5 2.5t17.5 6.5t14.5 9.5t11 9t8 8.5t5.5 6q16 16 40 -3q23 -17 27 -25.5t-4 -17.5 q-9 -13 -23 -27.5t-47.5 -32t-69.5 -17.5zM28 0q-28 0 -28 19q0 10 9 16t21.5 15.5t18.5 28.5l190 548q7 21 -3.5 35t-10.5 19q0 19 24 19h147q25 0 25 -19q0 -8 -13.5 -21t-5.5 -33l214 -553q8 -21 26 -32.5t18 -22.5q0 -12 -8 -15.5t-30 -3.5h-120q-19 0 -26 3t-7 14 q0 13 14.5 23t8.5 28l-18 50q-6 16 -26 16h-242q-21 0 -27 -14l-9 -35q-8 -33 3.5 -44.5t11.5 -23.5q0 -11 -10 -14t-34 -3h-113zM230 233h188q18 0 10 22l-99 276q-3 8 -8.5 8t-7.5 -7l-97 -281q-6 -18 14 -18z" />
<glyph unicode="&#xe4;" horiz-adv-x="660" d="M229 746q-24 0 -42 18t-18 43q0 24 17.5 42.5t42.5 18.5q27 0 43 -16.5t16 -44.5q0 -27 -17 -44t-42 -17zM427 746q-24 0 -42 18t-18 43q0 24 17.5 42.5t42.5 18.5q27 0 43 -16.5t16 -44.5q0 -27 -17 -44t-42 -17zM28 0q-28 0 -28 19q0 10 9 16t21.5 15.5t18.5 28.5 l190 548q7 21 -3.5 35t-10.5 19q0 19 24 19h147q25 0 25 -19q0 -8 -13.5 -21t-5.5 -33l214 -553q8 -21 26 -32.5t18 -22.5q0 -12 -8 -15.5t-30 -3.5h-120q-19 0 -26 3t-7 14q0 13 14.5 23t8.5 28l-18 50q-6 16 -26 16h-242q-21 0 -27 -14l-9 -35q-8 -33 3.5 -44.5 t11.5 -23.5q0 -11 -10 -14t-34 -3h-113zM230 233h188q18 0 10 22l-99 276q-3 8 -8.5 8t-7.5 -7l-97 -281q-6 -18 14 -18z" />
<glyph unicode="&#xe5;" horiz-adv-x="660" d="M329 737q-47 0 -77 31t-30 80q0 45 31 76t76 31q46 0 74.5 -32.5t28.5 -75.5q0 -49 -29 -79.5t-74 -30.5zM328 801q18 0 29.5 12.5t11.5 32.5q0 17 -11.5 30t-29.5 13t-31 -12.5t-13 -30.5q0 -20 12 -32.5t32 -12.5zM28 0q-28 0 -28 19q0 10 9 16t21.5 15.5t18.5 28.5 l190 548q7 21 -3.5 35t-10.5 19q0 19 24 19h147q25 0 25 -19q0 -8 -13.5 -21t-5.5 -33l214 -553q8 -21 26 -32.5t18 -22.5q0 -12 -8 -15.5t-30 -3.5h-120q-19 0 -26 3t-7 14q0 13 14.5 23t8.5 28l-18 50q-6 16 -26 16h-242q-21 0 -27 -14l-9 -35q-8 -33 3.5 -44.5 t11.5 -23.5q0 -11 -10 -14t-34 -3h-113zM230 233h188q18 0 10 22l-99 276q-3 8 -8.5 8t-7.5 -7l-97 -281q-6 -18 14 -18z" />
<glyph unicode="&#xe6;" horiz-adv-x="966" d="M-12 0q-28 0 -28 15q0 11 18.5 19.5t31.5 30.5l319 554q12 25 9 31.5t-13 13t-10 14.5q0 10 5 15.5t10 6t15 0.5h546q25 0 25 -22v-84q0 -35 -19 -35q-6 0 -10.5 5t-8 11.5t-15 11.5t-30.5 5h-312q-21 0 -21 -20v-134q0 -17 4 -22.5t19 -5.5h206q19 0 30.5 13.5 t16.5 13.5q9 0 13 -5.5t5 -12.5t1 -20v-91q0 -36 -21 -36q-4 0 -16 15t-29 15h-198q-14 0 -21.5 -6t-6.5 -18v-152q0 -16 6.5 -20t23.5 -4l308 -3q17 0 26.5 5.5t11.5 12t6.5 12t12.5 5.5q12 0 15 -8.5t3 -26.5v-78q0 -21 -17 -21h-515q-39 0 -39 12q0 11 11 17t22 16t11 31 v38q0 20 -19 20h-177q-17 0 -24 -13l-29 -56q-10 -23 -6.5 -26.5t12.5 -7.5t9 -14q0 -11 -8.5 -14t-31.5 -3h-127zM246 233h124q9 0 14 6t5 13l-1 228q0 6 -8 8t-13 -6l-129 -227q-5 -7 -3 -14.5t11 -7.5z" />
<glyph unicode="&#xe7;" horiz-adv-x="705" d="M669 103q12 -13 0 -25q-3 -3 -18 -4t-34 -15q-55 -39 -94 -53q-59 -21 -138 -21h-5l-8 -18q-11 -26 17 -14q36 14 63 10q28 -5 41 -29.5t11 -57.5q-5 -39 -33.5 -62t-73.5 -23q-64 0 -114 36q-14 9 0 35q10 17 26 10q50 -19 83 -19q15 0 23.5 13.5t3.5 27t-22 13.5 q-7 0 -42.5 -6.5t-43.5 -6.5q-32 0 -40.5 10t2.5 30l30 60q-122 28 -197.5 129t-75.5 231q0 153 99 256t264 103q130 0 207 -58q13 -10 32 -5t25 0q13 -10 -8 -43l-42 -65q-15 -24 -32 -15q-5 3 -9.5 17t-15.5 24q-49 43 -157 43q-107 0 -176 -73t-69 -184q0 -108 69 -186.5 t168 -78.5q115 0 165 50q16 17 15 31t4 19q15 15 28 -2z" />
<glyph unicode="&#xe8;" horiz-adv-x="651" d="M366 762q-30 0 -38 8t-29 58q-22 52 -16 61.5t56 9.5q28 0 35.5 -6.5t27.5 -51.5q26 -59 21.5 -69t-57.5 -10zM89 0q-39 0 -39 12q0 11 11 17t22 16t11 31l-1 538q0 22 -6.5 34t-13.5 14.5t-13.5 8t-6.5 16.5q0 4 2 6.5t6 3.5l8 2t10.5 1h11.5h13h13h479q25 0 25 -22v-75 q0 -35 -19 -35q-6 0 -10.5 5t-8 11.5t-15 11.5t-30.5 5h-312q-19 0 -19 -20v-149q0 -16 4.5 -22t18.5 -6h204q19 0 30.5 13.5t16.5 13.5q9 0 13 -5.5t5 -12.5t1 -20v-81q0 -36 -21 -36q-4 0 -16 15t-29 15h-198q-14 0 -21.5 -6t-6.5 -18v-159q0 -16 6.5 -20t23.5 -4h308 q17 0 26.5 5.5t11.5 12t6.5 12t12.5 5.5q12 0 15 -8.5t3 -26.5v-78q0 -21 -17 -21h-515z" />
<glyph unicode="&#xe9;" horiz-adv-x="651" d="M359 760q-53 0 -57.5 10t21.5 71q20 46 27.5 52.5t37.5 6.5q56 0 60.5 -10t-20.5 -63q-22 -50 -30.5 -58.5t-38.5 -8.5zM89 0q-39 0 -39 12q0 11 11 17t22 16t11 31l-1 538q0 22 -6.5 34t-13.5 14.5t-13.5 8t-6.5 16.5q0 4 2 6.5t6 3.5l8 2t10.5 1h11.5h13h13h479 q25 0 25 -22v-75q0 -35 -19 -35q-6 0 -10.5 5t-8 11.5t-15 11.5t-30.5 5h-312q-19 0 -19 -20v-149q0 -16 4.5 -22t18.5 -6h204q19 0 30.5 13.5t16.5 13.5q9 0 13 -5.5t5 -12.5t1 -20v-81q0 -36 -21 -36q-4 0 -16 15t-29 15h-198q-14 0 -21.5 -6t-6.5 -18v-159q0 -16 6.5 -20 t23.5 -4h308q17 0 26.5 5.5t11.5 12t6.5 12t12.5 5.5q12 0 15 -8.5t3 -26.5v-78q0 -21 -17 -21h-515z" />
<glyph unicode="&#xea;" horiz-adv-x="651" d="M363 916q21 0 52 -25l97 -86q12 -11 6 -21t-22 -10h-47q-20 0 -38 16l-39 35q-10 9 -19 0l-41 -35q-18 -16 -37 -16h-51q-16 0 -21.5 10.5t7.5 23.5l97 84q29 24 56 24zM89 0q-39 0 -39 12q0 11 11 17t22 16t11 31l-1 538q0 22 -6.5 34t-13.5 14.5t-13.5 8t-6.5 16.5 q0 4 2 6.5t6 3.5l8 2t10.5 1h11.5h13h13h479q25 0 25 -22v-75q0 -35 -19 -35q-6 0 -10.5 5t-8 11.5t-15 11.5t-30.5 5h-312q-19 0 -19 -20v-149q0 -16 4.5 -22t18.5 -6h204q19 0 30.5 13.5t16.5 13.5q9 0 13 -5.5t5 -12.5t1 -20v-81q0 -36 -21 -36q-4 0 -16 15t-29 15h-198 q-14 0 -21.5 -6t-6.5 -18v-159q0 -16 6.5 -20t23.5 -4h308q17 0 26.5 5.5t11.5 12t6.5 12t12.5 5.5q12 0 15 -8.5t3 -26.5v-78q0 -21 -17 -21h-515z" />
<glyph unicode="&#xeb;" horiz-adv-x="651" d="M264 746q-24 0 -42 18t-18 43q0 24 17.5 42.5t42.5 18.5q27 0 43 -16.5t16 -44.5q0 -27 -17 -44t-42 -17zM462 746q-24 0 -42 18t-18 43q0 24 17.5 42.5t42.5 18.5q27 0 43 -16.5t16 -44.5q0 -27 -17 -44t-42 -17zM89 0q-39 0 -39 12q0 11 11 17t22 16t11 31l-1 538 q0 22 -6.5 34t-13.5 14.5t-13.5 8t-6.5 16.5q0 4 2 6.5t6 3.5l8 2t10.5 1h11.5h13h13h479q25 0 25 -22v-75q0 -35 -19 -35q-6 0 -10.5 5t-8 11.5t-15 11.5t-30.5 5h-312q-19 0 -19 -20v-149q0 -16 4.5 -22t18.5 -6h204q19 0 30.5 13.5t16.5 13.5q9 0 13 -5.5t5 -12.5t1 -20 v-81q0 -36 -21 -36q-4 0 -16 15t-29 15h-198q-14 0 -21.5 -6t-6.5 -18v-159q0 -16 6.5 -20t23.5 -4h308q17 0 26.5 5.5t11.5 12t6.5 12t12.5 5.5q12 0 15 -8.5t3 -26.5v-78q0 -21 -17 -21h-515z" />
<glyph unicode="&#xec;" horiz-adv-x="284" d="M148 762q-30 0 -38 8t-29 58q-22 52 -16 61.5t56 9.5q28 0 35.5 -6.5t27.5 -51.5q26 -59 21.5 -69t-57.5 -10zM85 0q-19 0 -27 3t-8 15q0 5 18 22.5t18 45.5v534q0 30 -14.5 45t-14.5 20q0 15 31 15h110q35 0 35 -15q0 -6 -9 -11.5t-18 -18t-9 -35.5v-534q0 -23 9.5 -36 t18.5 -20.5t9 -15.5q0 -14 -36 -14h-113z" />
<glyph unicode="&#xed;" horiz-adv-x="284" d="M141 760q-53 0 -57.5 10t21.5 71q20 46 27.5 52.5t37.5 6.5q56 0 60.5 -10t-20.5 -63q-22 -50 -30.5 -58.5t-38.5 -8.5zM85 0q-19 0 -27 3t-8 15q0 5 18 22.5t18 45.5v534q0 30 -14.5 45t-14.5 20q0 15 31 15h110q35 0 35 -15q0 -6 -9 -11.5t-18 -18t-9 -35.5v-534 q0 -23 9.5 -36t18.5 -20.5t9 -15.5q0 -14 -36 -14h-113z" />
<glyph unicode="&#xee;" horiz-adv-x="284" d="M145 916q21 0 52 -25l97 -86q12 -11 6 -21t-22 -10h-47q-20 0 -38 16l-39 35q-10 9 -19 0l-41 -35q-18 -16 -37 -16h-51q-16 0 -21.5 10.5t7.5 23.5l97 84q29 24 56 24zM85 0q-19 0 -27 3t-8 15q0 5 18 22.5t18 45.5v534q0 30 -14.5 45t-14.5 20q0 15 31 15h110 q35 0 35 -15q0 -6 -9 -11.5t-18 -18t-9 -35.5v-534q0 -23 9.5 -36t18.5 -20.5t9 -15.5q0 -14 -36 -14h-113z" />
<glyph unicode="&#xef;" horiz-adv-x="284" d="M46 746q-24 0 -42 18t-18 43q0 24 17.5 42.5t42.5 18.5q27 0 43 -16.5t16 -44.5q0 -27 -17 -44t-42 -17zM244 746q-24 0 -42 18t-18 43q0 24 17.5 42.5t42.5 18.5q27 0 43 -16.5t16 -44.5q0 -27 -17 -44t-42 -17zM85 0q-19 0 -27 3t-8 15q0 5 18 22.5t18 45.5v534 q0 30 -14.5 45t-14.5 20q0 15 31 15h110q35 0 35 -15q0 -6 -9 -11.5t-18 -18t-9 -35.5v-534q0 -23 9.5 -36t18.5 -20.5t9 -15.5q0 -14 -36 -14h-113z" />
<glyph unicode="&#xf0;" horiz-adv-x="728" d="M94 0q-44 0 -44 20q0 7 6 12t13.5 9t13.5 15t6 29v231q0 21 -21 21q-20 0 -20 19v69q0 13 4.5 17.5t20.5 4.5t16 23v142q0 21 -6 34.5t-12.5 17.5t-12.5 9.5t-6 11.5q0 15 39 15h6h277q151 0 242.5 -96.5t91.5 -248.5t-91.5 -253.5t-241.5 -101.5h-281zM224 110h118 q117 0 181 61t64 184q0 234 -245 232l-118 -1q-24 0 -24 -21v-97q0 -13 5 -17t16 -4h210q20 0 20 -17v-75q0 -11 -4.5 -14.5t-15.5 -3.5h-207q-24 0 -24 -21v-179q0 -17 4.5 -22t19.5 -5z" />
<glyph unicode="&#xf1;" horiz-adv-x="798" d="M483 748q-39 0 -79.5 30.5t-75.5 30.5q-46 0 -85 -53q-8 -10 -15.5 -8.5t-27.5 16.5q-18 14 -21.5 22.5t3.5 18.5q53 83 143 83q38 0 67.5 -15t50.5 -29.5t39 -14.5q11 0 21.5 2.5t17.5 6.5t14.5 9.5t11 9t8 8.5t5.5 6q16 16 40 -3q23 -17 27 -25.5t-4 -17.5 q-9 -13 -23 -27.5t-47.5 -32t-69.5 -17.5zM87 0q-37 0 -37 14q0 9 6 14.5t13.5 9.5t13.5 16.5t5 33.5v526q0 21 -5.5 33.5t-12 16.5t-12 9t-5.5 12q0 10 9.5 12.5t35.5 2.5h71q29 0 29 -26v-70v-5.5t1 -5t1.5 -4t2 -3.5t2 -3.5t2.5 -3.5l3 -3l4 -4l4 -4l357 -307 q10 -10 17.5 -6.5t7.5 20.5v323q0 27 -5.5 43t-12.5 19.5t-12.5 9t-5.5 13.5q0 12 11.5 14.5t47.5 2.5h68q31 0 44 -3.5t13 -15.5q0 -8 -5.5 -13t-12.5 -8.5t-12.5 -17.5t-5.5 -38v-528q0 -21 16 -34.5t16 -24.5q0 -17 -31 -17h-94q-19 0 -19 24v53q0 18 -21 39l-350 297 q-13 11 -21.5 7.5t-8.5 -20.5v-314q0 -21 6.5 -33.5t14.5 -15.5t14.5 -8.5t6.5 -14.5q0 -10 -6 -12t-23 -2h-8h-117z" />
<glyph unicode="&#xf2;" horiz-adv-x="778" d="M395 762q-30 0 -38 8t-29 58q-22 52 -16 61.5t56 9.5q28 0 35.5 -6.5t27.5 -51.5q26 -59 21.5 -69t-57.5 -10zM30 346q0 89 31 161t83 116.5t116.5 68t133.5 23.5q68 -1 130.5 -24.5t113 -68t80.5 -116t30 -160.5t-31.5 -160t-83.5 -115t-116.5 -66.5t-134.5 -21.5 q-92 2 -170 41t-130 123t-52 199zM150 346q0 -120 70 -187.5t166 -69.5q99 -2 172 66t73 191t-70.5 192t-167.5 70q-98 1 -170.5 -68t-72.5 -194z" />
<glyph unicode="&#xf3;" horiz-adv-x="778" d="M388 760q-53 0 -57.5 10t21.5 71q20 46 27.5 52.5t37.5 6.5q56 0 60.5 -10t-20.5 -63q-22 -50 -30.5 -58.5t-38.5 -8.5zM30 346q0 89 31 161t83 116.5t116.5 68t133.5 23.5q68 -1 130.5 -24.5t113 -68t80.5 -116t30 -160.5t-31.5 -160t-83.5 -115t-116.5 -66.5 t-134.5 -21.5q-92 2 -170 41t-130 123t-52 199zM150 346q0 -120 70 -187.5t166 -69.5q99 -2 172 66t73 191t-70.5 192t-167.5 70q-98 1 -170.5 -68t-72.5 -194z" />
<glyph unicode="&#xf4;" horiz-adv-x="778" d="M392 916q21 0 52 -25l97 -86q12 -11 6 -21t-22 -10h-47q-20 0 -38 16l-39 35q-10 9 -19 0l-41 -35q-18 -16 -37 -16h-51q-16 0 -21.5 10.5t7.5 23.5l97 84q29 24 56 24zM30 346q0 89 31 161t83 116.5t116.5 68t133.5 23.5q68 -1 130.5 -24.5t113 -68t80.5 -116t30 -160.5 t-31.5 -160t-83.5 -115t-116.5 -66.5t-134.5 -21.5q-92 2 -170 41t-130 123t-52 199zM150 346q0 -120 70 -187.5t166 -69.5q99 -2 172 66t73 191t-70.5 192t-167.5 70q-98 1 -170.5 -68t-72.5 -194z" />
<glyph unicode="&#xf5;" horiz-adv-x="778" d="M470 748q-39 0 -79.5 30.5t-75.5 30.5q-46 0 -85 -53q-8 -10 -15.5 -8.5t-27.5 16.5q-18 14 -21.5 22.5t3.5 18.5q53 83 143 83q38 0 67.5 -15t50.5 -29.5t39 -14.5q11 0 21.5 2.5t17.5 6.5t14.5 9.5t11 9t8 8.5t5.5 6q16 16 40 -3q23 -17 27 -25.5t-4 -17.5 q-9 -13 -23 -27.5t-47.5 -32t-69.5 -17.5zM30 346q0 89 31 161t83 116.5t116.5 68t133.5 23.5q68 -1 130.5 -24.5t113 -68t80.5 -116t30 -160.5t-31.5 -160t-83.5 -115t-116.5 -66.5t-134.5 -21.5q-92 2 -170 41t-130 123t-52 199zM150 346q0 -120 70 -187.5t166 -69.5 q99 -2 172 66t73 191t-70.5 192t-167.5 70q-98 1 -170.5 -68t-72.5 -194z" />
<glyph unicode="&#xf6;" horiz-adv-x="778" d="M293 746q-24 0 -42 18t-18 43q0 24 17.5 42.5t42.5 18.5q27 0 43 -16.5t16 -44.5q0 -27 -17 -44t-42 -17zM491 746q-24 0 -42 18t-18 43q0 24 17.5 42.5t42.5 18.5q27 0 43 -16.5t16 -44.5q0 -27 -17 -44t-42 -17zM30 346q0 89 31 161t83 116.5t116.5 68t133.5 23.5 q68 -1 130.5 -24.5t113 -68t80.5 -116t30 -160.5t-31.5 -160t-83.5 -115t-116.5 -66.5t-134.5 -21.5q-92 2 -170 41t-130 123t-52 199zM150 346q0 -120 70 -187.5t166 -69.5q99 -2 172 66t73 191t-70.5 192t-167.5 70q-98 1 -170.5 -68t-72.5 -194z" />
<glyph unicode="&#xf7;" horiz-adv-x="502" d="M254 444q-24 0 -42 18t-18 43q0 24 17.5 42.5t42.5 18.5q27 0 43 -16.5t16 -44.5q0 -27 -17 -44t-42 -17zM68 306q-18 0 -18 19v64q0 18 20 18h360q22 0 22 -21v-62q0 -18 -20 -18h-364zM254 147q-24 0 -42 18t-18 43q0 24 17.5 42.5t42.5 18.5q27 0 43 -16.5t16 -44.5 q0 -27 -17 -44t-42 -17z" />
<glyph unicode="&#xf8;" horiz-adv-x="778" d="M97 -4l-42 39q-20 19 0 41l29 32q8 9 9 12t-7 20q-56 92 -56 206q0 81 26 147.5t69 110.5t99.5 72t117 35.5t122 -4t114.5 -41.5q18 -10 33 5l34 37q7 7 17 8t16 -5l45 -42q19 -18 0 -37l-35 -36q-13 -11 -3 -29q63 -115 63 -221q0 -82 -28 -149.5t-73.5 -110t-104 -68.5 t-120 -31t-121 7.5t-106.5 42.5q-13 9 -27 -5l-33 -36q-8 -8 -19 -8t-19 8zM196 227l304 325q19 22 -5 34q-42 21 -89.5 24.5t-92.5 -12.5t-81.5 -47.5t-59 -85t-22.5 -119.5q0 -61 21 -114q9 -23 25 -5zM273 120q54 -29 116.5 -28.5t116 26.5t89.5 86t36 142q0 86 -25 123 q-13 20 -30 3l-306 -329q-14 -14 3 -23z" />
<glyph unicode="&#xf9;" horiz-adv-x="751" d="M377 762q-30 0 -38 8t-29 58q-22 52 -16 61.5t56 9.5q28 0 35.5 -6.5t27.5 -51.5q26 -59 21.5 -69t-57.5 -10zM381 -14q-143 0 -220 84t-78 235l-2 320q0 16 -5 25.5t-10.5 12.5t-10.5 8t-5 12q0 17 31 17h116q19 0 26.5 -3.5t7.5 -14.5q0 -6 -5.5 -10.5t-12 -7t-12 -13 t-5.5 -28.5v-318q0 -94 45.5 -156.5t139.5 -62.5q91 0 135.5 62.5t44.5 153.5v318q0 19 -5 30.5t-10.5 14.5t-10.5 7t-5 10q0 12 7.5 15t24.5 3h108q11 0 17 -1t10 -5.5t4 -13.5q0 -6 -7.5 -10.5t-14.5 -16t-7 -33.5v-315q0 -152 -73 -235.5t-218 -83.5z" />
<glyph unicode="&#xfa;" horiz-adv-x="751" d="M370 760q-53 0 -57.5 10t21.5 71q20 46 27.5 52.5t37.5 6.5q56 0 60.5 -10t-20.5 -63q-22 -50 -30.5 -58.5t-38.5 -8.5zM381 -14q-143 0 -220 84t-78 235l-2 320q0 16 -5 25.5t-10.5 12.5t-10.5 8t-5 12q0 17 31 17h116q19 0 26.5 -3.5t7.5 -14.5q0 -6 -5.5 -10.5t-12 -7 t-12 -13t-5.5 -28.5v-318q0 -94 45.5 -156.5t139.5 -62.5q91 0 135.5 62.5t44.5 153.5v318q0 19 -5 30.5t-10.5 14.5t-10.5 7t-5 10q0 12 7.5 15t24.5 3h108q11 0 17 -1t10 -5.5t4 -13.5q0 -6 -7.5 -10.5t-14.5 -16t-7 -33.5v-315q0 -152 -73 -235.5t-218 -83.5z" />
<glyph unicode="&#xfb;" horiz-adv-x="751" d="M374 916q21 0 52 -25l97 -86q12 -11 6 -21t-22 -10h-47q-20 0 -38 16l-39 35q-10 9 -19 0l-41 -35q-18 -16 -37 -16h-51q-16 0 -21.5 10.5t7.5 23.5l97 84q29 24 56 24zM381 -14q-143 0 -220 84t-78 235l-2 320q0 16 -5 25.5t-10.5 12.5t-10.5 8t-5 12q0 17 31 17h116 q19 0 26.5 -3.5t7.5 -14.5q0 -6 -5.5 -10.5t-12 -7t-12 -13t-5.5 -28.5v-318q0 -94 45.5 -156.5t139.5 -62.5q91 0 135.5 62.5t44.5 153.5v318q0 19 -5 30.5t-10.5 14.5t-10.5 7t-5 10q0 12 7.5 15t24.5 3h108q11 0 17 -1t10 -5.5t4 -13.5q0 -6 -7.5 -10.5t-14.5 -16 t-7 -33.5v-315q0 -152 -73 -235.5t-218 -83.5z" />
<glyph unicode="&#xfc;" horiz-adv-x="751" d="M275 746q-24 0 -42 18t-18 43q0 24 17.5 42.5t42.5 18.5q27 0 43 -16.5t16 -44.5q0 -27 -17 -44t-42 -17zM473 746q-24 0 -42 18t-18 43q0 24 17.5 42.5t42.5 18.5q27 0 43 -16.5t16 -44.5q0 -27 -17 -44t-42 -17zM381 -14q-143 0 -220 84t-78 235l-2 320q0 16 -5 25.5 t-10.5 12.5t-10.5 8t-5 12q0 17 31 17h116q19 0 26.5 -3.5t7.5 -14.5q0 -6 -5.5 -10.5t-12 -7t-12 -13t-5.5 -28.5v-318q0 -94 45.5 -156.5t139.5 -62.5q91 0 135.5 62.5t44.5 153.5v318q0 19 -5 30.5t-10.5 14.5t-10.5 7t-5 10q0 12 7.5 15t24.5 3h108q11 0 17 -1t10 -5.5 t4 -13.5q0 -6 -7.5 -10.5t-14.5 -16t-7 -33.5v-315q0 -152 -73 -235.5t-218 -83.5z" />
<glyph unicode="&#xfd;" horiz-adv-x="638" d="M315 760q-53 0 -57.5 10t21.5 71q20 46 27.5 52.5t37.5 6.5q56 0 60.5 -10t-20.5 -63q-22 -50 -30.5 -58.5t-38.5 -8.5zM251 0q-30 0 -30 15q0 6 16 18.5t16 32.5v157q0 23 -5 32l-222 379q-8 14 -17 21.5t-15 9t-10 6.5t-4 14q0 15 39 15h126q27 0 27 -15 q0 -10 -9.5 -15.5t-13 -9t6.5 -24.5l152 -257q8 -14 17 0l155 258q8 17 5 21.5t-11 11.5t-8 15q0 15 26 15h134q32 0 32 -15q0 -10 -5 -15t-12 -7t-19 -12t-22 -28l-216 -367q-9 -15 -9 -32v-158q0 -16 8 -24t16 -13.5t8 -13.5q0 -7 -4.5 -10.5t-9.5 -4t-17 -0.5h-125z" />
<glyph unicode="&#xfe;" horiz-adv-x="686" d="M94 0q-25 0 -34.5 3t-9.5 15q0 6 11 13.5t22.5 20.5t11.5 34l1 534q0 23 -8.5 35t-17.5 17.5t-9 12.5q0 15 36 15h110q39 0 39 -15q0 -6 -10 -11.5t-20 -18t-10 -35.5v-11q0 -18 18 -18h195q104 0 170.5 -54.5t66.5 -173.5q0 -113 -63 -177.5t-188 -64.5h-182 q-16 0 -16 -15v-20q0 -18 7 -30.5t15.5 -17.5t15.5 -11t7 -13q0 -14 -45 -14h-113zM224 235h175q141 0 141 127q0 60 -40 89.5t-107 29.5h-169q-18 0 -18 -18l1 -208q0 -12 3.5 -16t13.5 -4z" />
<glyph unicode="&#xff;" horiz-adv-x="638" d="M220 746q-24 0 -42 18t-18 43q0 24 17.5 42.5t42.5 18.5q27 0 43 -16.5t16 -44.5q0 -27 -17 -44t-42 -17zM418 746q-24 0 -42 18t-18 43q0 24 17.5 42.5t42.5 18.5q27 0 43 -16.5t16 -44.5q0 -27 -17 -44t-42 -17zM251 0q-30 0 -30 15q0 6 16 18.5t16 32.5v157 q0 23 -5 32l-222 379q-8 14 -17 21.5t-15 9t-10 6.5t-4 14q0 15 39 15h126q27 0 27 -15q0 -10 -9.5 -15.5t-13 -9t6.5 -24.5l152 -257q8 -14 17 0l155 258q8 17 5 21.5t-11 11.5t-8 15q0 15 26 15h134q32 0 32 -15q0 -10 -5 -15t-12 -7t-19 -12t-22 -28l-216 -367 q-9 -15 -9 -32v-158q0 -16 8 -24t16 -13.5t8 -13.5q0 -7 -4.5 -10.5t-9.5 -4t-17 -0.5h-125z" />
<glyph unicode="&#x152;" horiz-adv-x="1034" d="M482 -6q-63 -12 -126 -9.5t-122 30.5t-104 70t-72.5 110t-27.5 151q0 68 18.5 127t51 100.5t75.5 73.5t92 46.5t101.5 19.5t103.5 -7q30 -6 50 -6h437q25 0 25 -22v-84q0 -35 -19 -35q-6 0 -10.5 5t-8 11.5t-15 11.5t-30.5 5h-312q-21 0 -21 -20v-134q0 -17 4 -22.5 t19 -5.5h206q19 0 30.5 13.5t16.5 13.5q9 0 13 -5.5t5 -12.5t1 -20v-91q0 -36 -21 -36q-4 0 -16 15t-29 15h-198q-14 0 -21.5 -6t-6.5 -18v-152q0 -16 6.5 -20t23.5 -4l308 -3q17 0 26.5 5.5t11.5 12t6.5 12t12.5 5.5q12 0 15 -8.5t3 -26.5v-78q0 -21 -17 -21h-441 q-19 0 -44 -6zM436 95q15 3 18 10.5t3 23.5l-1 442q0 28 -25 33q-108 19 -194.5 -50.5t-86.5 -207.5q0 -92 44 -155t108.5 -85.5t133.5 -10.5z" />
<glyph unicode="&#x153;" horiz-adv-x="1034" d="M482 -6q-63 -12 -126 -9.5t-122 30.5t-104 70t-72.5 110t-27.5 151q0 68 18.5 127t51 100.5t75.5 73.5t92 46.5t101.5 19.5t103.5 -7q30 -6 50 -6h437q25 0 25 -22v-84q0 -35 -19 -35q-6 0 -10.5 5t-8 11.5t-15 11.5t-30.5 5h-312q-21 0 -21 -20v-134q0 -17 4 -22.5 t19 -5.5h206q19 0 30.5 13.5t16.5 13.5q9 0 13 -5.5t5 -12.5t1 -20v-91q0 -36 -21 -36q-4 0 -16 15t-29 15h-198q-14 0 -21.5 -6t-6.5 -18v-152q0 -16 6.5 -20t23.5 -4l308 -3q17 0 26.5 5.5t11.5 12t6.5 12t12.5 5.5q12 0 15 -8.5t3 -26.5v-78q0 -21 -17 -21h-441 q-19 0 -44 -6zM436 95q15 3 18 10.5t3 23.5l-1 442q0 28 -25 33q-108 19 -194.5 -50.5t-86.5 -207.5q0 -92 44 -155t108.5 -85.5t133.5 -10.5z" />
<glyph unicode="&#x178;" horiz-adv-x="638" d="M220 746q-24 0 -42 18t-18 43q0 24 17.5 42.5t42.5 18.5q27 0 43 -16.5t16 -44.5q0 -27 -17 -44t-42 -17zM418 746q-24 0 -42 18t-18 43q0 24 17.5 42.5t42.5 18.5q27 0 43 -16.5t16 -44.5q0 -27 -17 -44t-42 -17zM251 0q-30 0 -30 15q0 6 16 18.5t16 32.5v157 q0 23 -5 32l-222 379q-8 14 -17 21.5t-15 9t-10 6.5t-4 14q0 15 39 15h126q27 0 27 -15q0 -10 -9.5 -15.5t-13 -9t6.5 -24.5l152 -257q8 -14 17 0l155 258q8 17 5 21.5t-11 11.5t-8 15q0 15 26 15h134q32 0 32 -15q0 -10 -5 -15t-12 -7t-19 -12t-22 -28l-216 -367 q-9 -15 -9 -32v-158q0 -16 8 -24t16 -13.5t8 -13.5q0 -7 -4.5 -10.5t-9.5 -4t-17 -0.5h-125z" />
<glyph unicode="&#x2c6;" horiz-adv-x="333" d="M168 916q21 0 52 -25l97 -86q12 -11 6 -21t-22 -10h-47q-20 0 -38 16l-39 35q-10 9 -19 0l-41 -35q-18 -16 -37 -16h-51q-16 0 -21.5 10.5t7.5 23.5l97 84q29 24 56 24z" />
<glyph unicode="&#x2dc;" horiz-adv-x="467" d="M314 748q-39 0 -79.5 30.5t-75.5 30.5q-46 0 -85 -53q-8 -10 -15.5 -8.5t-27.5 16.5q-18 14 -21.5 22.5t3.5 18.5q53 83 143 83q38 0 67.5 -15t50.5 -29.5t39 -14.5q11 0 21.5 2.5t17.5 6.5t14.5 9.5t11 9t8 8.5t5.5 6q16 16 40 -3q23 -17 27 -25.5t-4 -17.5 q-9 -13 -23 -27.5t-47.5 -32t-69.5 -17.5z" />
<glyph unicode="&#x2000;" horiz-adv-x="477" />
<glyph unicode="&#x2001;" horiz-adv-x="955" />
<glyph unicode="&#x2002;" horiz-adv-x="477" />
<glyph unicode="&#x2003;" horiz-adv-x="955" />
<glyph unicode="&#x2004;" horiz-adv-x="318" />
<glyph unicode="&#x2005;" horiz-adv-x="238" />
<glyph unicode="&#x2006;" horiz-adv-x="159" />
<glyph unicode="&#x2007;" horiz-adv-x="159" />
<glyph unicode="&#x2008;" horiz-adv-x="119" />
<glyph unicode="&#x2009;" horiz-adv-x="191" />
<glyph unicode="&#x200a;" horiz-adv-x="53" />
<glyph unicode="&#x2010;" horiz-adv-x="502" d="M68 306q-18 0 -18 19v64q0 18 20 18h360q22 0 22 -21v-62q0 -18 -20 -18h-364z" />
<glyph unicode="&#x2011;" horiz-adv-x="502" d="M68 306q-18 0 -18 19v64q0 18 20 18h360q22 0 22 -21v-62q0 -18 -20 -18h-364z" />
<glyph unicode="&#x2012;" horiz-adv-x="502" d="M68 306q-18 0 -18 19v64q0 18 20 18h360q22 0 22 -21v-62q0 -18 -20 -18h-364z" />
<glyph unicode="&#x2013;" />
<glyph unicode="&#x2014;" />
<glyph unicode="&#x2018;" horiz-adv-x="223" d="M113 547q-27 0 -45 18t-18 56q0 28 11.5 53.5t33.5 39.5q19 12 30 -2q6 -8 4.5 -15t-6 -12t-4 -9t10.5 -7q16 -4 29.5 -21t13.5 -40q0 -24 -17.5 -42.5t-42.5 -18.5z" />
<glyph unicode="&#x2019;" horiz-adv-x="223" d="M128 538q-19 -12 -30 2q-6 8 -4.5 15t6 12t4 9t-10.5 7q-16 4 -29.5 21t-13.5 40q0 24 17.5 42.5t42.5 18.5q27 0 45 -18t18 -56q0 -28 -11.5 -53.5t-33.5 -39.5z" />
<glyph unicode="&#x201a;" horiz-adv-x="223" d="M128 -45q-19 -12 -30 2q-6 8 -4.5 15t6 12t4 9t-10.5 7q-16 4 -29.5 21t-13.5 40q0 24 17.5 42.5t42.5 18.5q27 0 45 -18t18 -56q0 -64 -45 -93z" />
<glyph unicode="&#x201c;" horiz-adv-x="408" d="M316 547q-27 2 -44 20.5t-16 56.5q2 64 48 91q20 11 30 -3q7 -10 2 -20t-8.5 -13.5t9.5 -9.5q16 -5 29 -22.5t12 -40.5q-1 -24 -19 -42t-43 -17zM110 547q-27 1 -44 19.5t-16 56.5q2 64 48 91q19 11 30 -3q7 -9 2.5 -19t-8.5 -14t9 -10q16 -5 29 -22.5t12 -40.5 q-1 -24 -19 -41.5t-43 -16.5z" />
<glyph unicode="&#x201d;" horiz-adv-x="429" d="M128 561q-19 -12 -30 2q-6 8 -4.5 15t6 12t4 9t-10.5 7q-16 4 -29.5 21t-13.5 40q0 24 17.5 42.5t42.5 18.5q27 0 45 -18t18 -56q0 -64 -45 -93zM334 561q-19 -12 -30 2q-6 8 -4.5 15t6 12t4 9t-10.5 7q-16 4 -29.5 21t-13.5 40q0 24 17.5 42.5t42.5 18.5q27 0 45 -18 t18 -56q0 -64 -45 -93z" />
<glyph unicode="&#x201e;" horiz-adv-x="405" d="M128 -45q-19 -12 -30 2q-6 8 -4.5 15t6 12t4 9t-10.5 7q-16 4 -29.5 21t-13.5 40q0 24 17.5 42.5t42.5 18.5q27 0 45 -18t18 -56q0 -64 -45 -93zM310 -45q-19 -12 -30 2q-6 8 -4.5 15t6 12t4 9t-10.5 7q-16 4 -29.5 21t-13.5 40q0 24 17.5 42.5t42.5 18.5q27 0 45 -18 t18 -56q0 -64 -45 -93z" />
<glyph unicode="&#x2022;" />
<glyph unicode="&#x2026;" />
<glyph unicode="&#x202f;" horiz-adv-x="191" />
<glyph unicode="&#x2039;" />
<glyph unicode="&#x203a;" />
<glyph unicode="&#x205f;" horiz-adv-x="238" />
<glyph unicode="&#x20ac;" horiz-adv-x="762" d="M447 -19q-125 1 -214 71t-129 184q-8 23 -29 23h-28q-20 0 -16 22l9 37q5 21 28 21q12 0 15.5 3t3.5 11q0 13 -16 13q-19 0 -13 23l8 34q2 9 3.5 13t5.5 7t11 3q2 0 4 0.5t3.5 1.5t2.5 2.5l2 3t2 4.5t2 4.5t2 5.5t2 6q38 108 128.5 174t215.5 65q27 0 52.5 -2.5 t45.5 -7.5t38 -11t32 -12.5t23 -11t16 -8.5l7 -5q16 -9 32.5 -3.5t24.5 0.5q14 -10 -8 -45l-45 -73q-16 -25 -33 -16q-8 4 -12 22t-15 27l-4 3q-4 3 -7.5 6t-11 7t-15.5 7.5t-20.5 7t-26.5 6.5t-33 4.5t-40 1.5q-67 0 -129 -39.5t-94 -103.5q-11 -21 12 -21h143 q13 0 18.5 -5t2.5 -15l-13 -42q-6 -18 -29 -18h-135q-21 0 -24 -6q-1 -3 -1 -6q0 -15 23 -15h131q27 0 21 -22l-11 -40q-5 -18 -25 -18h-100q-24 0 -15 -21q29 -67 88.5 -108t133.5 -42q16 0 31.5 1.5t28.5 4t25 6.5t21 8t18 8.5t15 8.5l12 8t9 6.5t6 5.5l3 3q13 12 12.5 29 t7.5 21q19 11 34 -11l54 -73q19 -27 -2 -38q-4 -2 -19.5 0.5t-31.5 -11.5q-1 -1 -14.5 -11.5t-23.5 -17.5t-31.5 -18t-42 -18.5t-50.5 -13t-62 -5.5z" />
<glyph unicode="&#x2122;" horiz-adv-x="342" d="M87 779v-9v-8v-18v-52q0 -2 0.5 -13.5t1 -19t-0.5 -13.5q0 -3 -1 -5.5t-3 -4t-4.5 -2.5t-5.5 -1h-6t-5 0.5t-3 0.5h-2q-3 0 -5 5l-1 42v11l-2 37v8v51v28q2 32 4 43q0 9 22 6q1 0 2.5 -0.5t2.5 -0.5q10 -8 29 -36q16 -18 25 -29q1 -2 8.5 -10t9.5 -13q5 -5 13 -11 q1 -1 3 -2t3 -2q3 -3 5 1l3 6q2 4 6 2t5 -3q17 -17 13 -23q-6 -10 -23 -27q-9 -9 -17 -2q-26 32 -28 34q-4 3 -11 9.5t-10 8.5q-2 2 -4.5 5.5t-3.5 4.5q-11 14 -19 17q0 -2 -0.5 -7t-0.5 -8zM291 669q0 -3 0.5 -8t0.5 -9t-0.5 -8.5t-2.5 -6.5t-5 -2q-9 -1 -24 -1q-3 0 -5 4 v27q0 3 1 15.5t0 19.5q-1 10 -1 32q0 75 -2 85l-10 10q-2 0 -4 1t-4 4t1 8q13 16 20 20q4 2 23 2q10 1 10 -9v-23v-20v-20v-24q0 -24 2 -36v-30v-23v-8zM166 798l-15 14q0 1 -0.5 2.5t0.5 2.5t6 3q32 2 38 0q15 0 31 -13q10 -5 10 -11q0 -7 -10 -16q-5 -5 -8 -3q-4 0 -13 9 q-8 8 -29 8q-6 0 -10 4zM234 709q5 -1 4 -7q-11 -17 -19 -22q-7 -7 -22 -11q-14 -2 -22 -2q-15 0 -31 6q-13 7 -28 22q-6 8 -9 21q-4 8 -4 25q0 3 7 0q2 -4 13 -15t15 -12q1 0 5.5 -4.5t9.5 -7.5q18 -6 25 -5q18 0 31 13q2 3 4 5q2 1 3.5 1.5t3 0t3 -1.5t5 -2.5t6.5 -3.5z M110 741z" />
<glyph unicode="&#x25fc;" horiz-adv-x="700" d="M0 700h700v-700h-700v700z" />
</font>
</defs>
</svg>
